<svg width="35" height="35" viewBox="0 0 35 35" fill="none" xmlns="http://www.w3.org/2000/svg">
<path d="M30.4748 27.8833C30.0367 27.8833 29.5943 27.9219 29.1614 27.8745C28.5376 27.8053 28.1459 28.1208 27.8944 28.6098C27.6561 29.0725 27.4721 29.5711 27.3249 30.0714C27.034 31.0617 26.5206 31.846 25.5261 32.2438C24.8269 32.5234 24.0996 32.498 23.4206 32.2666C21.9696 31.7715 20.8139 32.1588 19.7721 33.2227C19.3953 33.6074 18.9117 33.9465 18.4122 34.1393C17.3897 34.5354 16.4329 34.2848 15.5979 33.5802C15.3079 33.3357 15.0143 33.093 14.7436 32.8274C13.9699 32.0694 13.0727 31.9029 12.0379 32.1579C11.4631 32.2999 10.8568 32.4217 10.2715 32.3963C9.09388 32.3455 8.29654 31.6821 7.8672 30.5937C7.69108 30.1468 7.57017 29.678 7.40369 29.2276C7.31344 28.9831 7.20392 28.7386 7.0611 28.5213C6.7851 28.1024 6.43988 27.836 5.87122 27.8702C5.02745 27.9201 4.17754 27.8579 3.33113 27.8894C2.27444 27.9289 1.47534 27.531 1.00307 26.582C0.5089 25.5891 0.568481 24.6068 1.19058 23.6761C1.32814 23.4702 1.49813 23.287 1.64796 23.089C2.07116 22.5282 2.0992 22.0734 1.73119 21.4713C1.59451 21.2479 1.42803 21.0428 1.26944 20.8343C0.766501 20.1691 0.590386 19.4287 0.731454 18.6067C0.762997 18.4235 0.779644 18.2255 0.744597 18.0458C0.563224 17.1012 0.819073 16.2853 1.43942 15.5703C1.66898 15.3056 1.89154 15.0322 2.14476 14.7912C2.94297 14.0323 3.05075 13.1218 2.83783 12.0931C2.7029 11.442 2.57672 10.7628 2.62053 10.1082C2.69326 9.02421 3.35566 8.29162 4.34664 7.87887C4.93807 7.63263 5.55316 7.44422 6.15073 7.21112C6.79474 6.95962 7.17325 6.46275 7.38354 5.81867C7.53687 5.34721 7.69108 4.87576 7.86107 4.41043C8.30705 3.19061 9.44435 2.45363 10.7376 2.5842C11.3886 2.64993 12.0318 2.79539 12.6793 2.90318C13.389 3.02236 14.0076 2.83307 14.5429 2.35548C14.8698 2.06367 15.1983 1.77449 15.5234 1.4818C16.7107 0.416209 18.2422 0.40394 19.4488 1.45288C19.7134 1.68248 19.9876 1.90243 20.2373 2.1478C21.0347 2.93385 21.9564 3.09246 23.0228 2.81818C23.5949 2.67096 24.2056 2.56843 24.7901 2.60173C25.9309 2.66658 26.701 3.32644 27.1278 4.37363C27.3696 4.96689 27.5641 5.57943 27.7998 6.1762C28.0408 6.78787 28.5148 7.15592 29.1264 7.3601C29.5548 7.50381 29.9868 7.63789 30.4126 7.78774C31.9267 8.32316 32.6487 9.57015 32.3674 11.158C32.278 11.6602 32.1782 12.1614 32.0923 12.6644C31.9722 13.3716 32.1519 13.9946 32.6329 14.5292C32.9457 14.8762 33.2603 15.2215 33.5652 15.5755C34.1724 16.2783 34.4335 17.0801 34.26 18.009C34.2311 18.1633 34.2136 18.335 34.2504 18.4849C34.4869 19.4523 34.1671 20.2638 33.5801 21.0095C32.8379 21.9516 32.8449 22.4695 33.6064 23.4071C34.5045 24.513 34.5588 25.9528 33.7395 27C33.3006 27.5608 32.7319 27.8763 32.0099 27.8815C31.4991 27.8851 30.9874 27.8824 30.4766 27.8824C30.4748 27.8815 30.4748 27.8824 30.4748 27.8833ZM29.3191 16.4974C29.1605 14.5274 28.5831 12.717 27.4896 11.1081C26.928 10.2817 26.2042 9.56577 25.576 8.78235C25.456 8.6325 25.3692 8.38889 25.399 8.21012C25.4201 8.08042 25.6566 7.89903 25.7994 7.89728C25.9729 7.89465 26.1815 8.02171 26.319 8.15228C28.3097 10.0337 29.5802 12.3183 30.1121 15.0068C30.2102 15.501 30.2689 16.0032 30.339 16.4571C31.2976 16.5246 32.2141 16.5894 33.1288 16.6534C33.0281 16.5184 32.8914 16.3186 32.7363 16.1337C32.3981 15.7324 32.0397 15.3468 31.7076 14.9393C31.2573 14.3864 31.0137 13.7475 31.089 13.0316C31.1626 12.3367 31.2687 11.6435 31.4001 10.9574C31.5964 9.92681 31.1083 9.05488 30.1112 8.72539C29.7651 8.61059 29.4199 8.49229 29.0703 8.38889C27.947 8.05676 27.1453 7.38288 26.7606 6.25156C26.6064 5.79588 26.4286 5.34809 26.2743 4.89241C25.9291 3.87326 25.0573 3.37726 24.0059 3.60598C23.5783 3.69887 23.1489 3.78212 22.7196 3.86975C21.8171 4.05465 20.9734 3.93284 20.2286 3.36412C19.7765 3.01885 19.3331 2.66132 18.9046 2.28713C17.9478 1.44938 17.0366 1.44587 16.0991 2.28626C15.7083 2.63678 15.314 2.98555 14.9048 3.31417C14.3738 3.74006 13.7587 3.97491 13.0753 3.90568C12.3656 3.83382 11.6585 3.72341 10.9575 3.59108C9.92977 3.39654 9.05445 3.88991 8.72938 4.88715C8.61635 5.23417 8.49719 5.57856 8.39555 5.9282C8.06697 7.05689 7.38091 7.84645 6.25237 8.23115C5.79762 8.38626 5.34989 8.5659 4.89514 8.72013C3.8954 9.05926 3.38896 9.92418 3.59662 10.9486C3.6746 11.3342 3.73506 11.7241 3.8218 12.108C4.11795 13.4101 3.80515 14.5309 2.85535 15.4774C2.59688 15.7341 2.35855 16.0128 2.12548 16.2932C2.01508 16.4255 1.93973 16.5859 1.90819 16.6367C2.81593 16.5798 3.7333 16.5219 4.65506 16.4641C4.66558 16.4448 4.68573 16.4212 4.69011 16.3949C4.7015 16.323 4.70763 16.2503 4.71464 16.1775C4.87937 14.4547 5.37267 12.8283 6.22083 11.3228C9.17887 6.07192 14.9285 3.59722 20.7736 5.05803C22.0116 5.36737 23.1709 5.88088 24.2573 6.55477C24.5403 6.73091 24.6385 6.9789 24.4799 7.2602C24.3152 7.55289 24.0427 7.56691 23.7605 7.40391C23.672 7.35309 23.5853 7.29963 23.4968 7.24793C21.613 6.14641 19.5723 5.59083 17.3967 5.62237C12.1676 5.69949 7.75417 8.98215 6.16475 13.971C5.90802 14.7781 5.79499 15.6307 5.60223 16.5211C5.87999 16.5211 6.03858 16.5211 6.19717 16.5211C6.70799 16.5219 7.21969 16.5202 7.73051 16.5237C8.02141 16.5263 8.20454 16.6665 8.22031 16.968C8.23695 17.2896 8.05558 17.4517 7.75242 17.4885C7.63676 17.5025 7.51935 17.4955 7.40194 17.4955C5.95621 17.4955 4.51049 17.4999 3.06564 17.4938C2.56358 17.4911 2.19733 17.7102 1.94061 18.1256C1.54895 18.7565 1.58399 19.5855 2.01946 20.191C2.18945 20.4276 2.37783 20.6537 2.52941 20.9017C3.15764 21.9296 3.09105 22.8839 2.34103 23.8163C2.2131 23.9758 2.06941 24.1248 1.95988 24.2966C1.57173 24.9038 1.56296 25.5383 1.88891 26.1684C2.13687 26.6468 2.52941 26.8878 3.09193 26.8878C12.6994 26.8817 22.3069 26.8843 31.9144 26.8817C32.5409 26.8817 32.9553 26.5855 33.1823 25.9975C33.4749 25.2395 33.3076 24.5752 32.7906 23.9662C31.7926 22.7884 31.7856 21.7281 32.7153 20.4837C32.9291 20.1972 33.1096 19.8642 33.2191 19.5242C33.552 18.4875 32.8721 17.4552 31.7164 17.4771C28.7829 17.5332 25.8468 17.4955 22.9124 17.4955C18.5901 17.4955 14.2687 17.4964 9.94641 17.4946C9.45049 17.4946 9.21654 17.3316 9.21567 17.0004C9.21479 16.6691 9.43647 16.5219 9.94729 16.5211C10.5545 16.5193 11.1617 16.5211 11.8355 16.5211C11.7207 16.3248 11.6436 16.1916 11.5639 16.0592C10.1374 13.6932 10.2557 11.0581 11.8881 8.8323C12.3971 8.13826 13.2497 7.8999 14.0269 8.25919C15.4279 8.90854 16.6239 9.82165 17.5474 11.0704C17.6578 11.2194 17.7647 11.3692 17.8777 11.5243C17.9794 11.4525 18.0521 11.4025 18.1222 11.3508C19.5443 10.3019 21.1223 9.61485 22.8686 9.33442C23.7868 9.18721 24.4089 9.72263 24.4203 10.6445C24.4475 12.7915 23.5362 14.5327 22.0739 16.0303C21.9372 16.1697 21.7777 16.2862 21.6279 16.4133C21.6515 16.4413 21.6761 16.4685 21.6997 16.4965C24.2346 16.4974 26.7659 16.4974 29.3191 16.4974ZM27.0454 27.8833C26.5652 27.8833 26.0825 27.8491 25.6076 27.8956C25.2921 27.9262 24.9443 28.0042 24.6849 28.1742C20.1979 31.1213 14.6358 31.0915 10.1821 28.077C10.0761 28.0051 9.95693 27.9035 9.84215 27.9C9.20603 27.8824 8.56903 27.8921 7.95745 27.8921C8.24134 28.707 8.49543 29.4931 8.78808 30.2634C9.12104 31.1397 9.98584 31.5927 10.9076 31.4087C11.351 31.3202 11.7934 31.2291 12.235 31.1309C13.1866 30.9197 14.0637 31.0704 14.84 31.676C15.2886 32.0256 15.7276 32.3875 16.1578 32.76C17.0348 33.5206 17.9575 33.5224 18.8337 32.7705C19.3095 32.3621 19.7931 31.9616 20.2952 31.5875C20.8927 31.1414 21.5753 30.9548 22.3192 31.0731C22.8949 31.1642 23.467 31.279 24.0374 31.3973C25.0214 31.6015 25.9055 31.1309 26.2437 30.1959C26.5127 29.4449 26.7659 28.6895 27.0454 27.8833ZM14.3808 16.5211C14.1802 15.9436 13.9734 15.4169 13.8148 14.8753C13.4784 13.7265 13.3084 12.5663 13.7106 11.3911C13.8227 11.0625 14.0295 10.8934 14.3721 11.0056C14.7007 11.1133 14.7138 11.3648 14.6665 11.6794C14.5815 12.2359 14.4536 12.8143 14.5263 13.3593C14.6271 14.1165 14.8496 14.8683 15.1063 15.5913C15.441 16.5351 15.4778 16.5219 16.496 16.5219C17.7551 16.5219 17.7875 16.4746 17.8611 15.2005C18.032 12.2517 15.6452 10.0223 13.5414 9.13726C13.2102 8.99792 12.9176 9.11184 12.6924 9.40102C11.1012 11.4507 11.2248 14.4179 12.9886 16.3274C13.0692 16.415 13.1971 16.5035 13.3084 16.5114C13.6536 16.5359 14.0015 16.5211 14.3808 16.5211ZM18.6453 16.4799C19.4085 16.592 20.0945 16.5771 20.6544 15.9944C20.997 15.6377 21.3957 15.3328 21.7225 14.963C22.7766 13.7686 23.4258 12.4006 23.4416 10.7716C23.4451 10.3737 23.2874 10.2405 22.9132 10.315C21.3159 10.6305 19.8509 11.2465 18.5734 12.2674C18.4771 12.3446 18.4298 12.5619 18.4543 12.6968C18.5147 13.0237 18.6453 13.3374 18.7215 13.6625C18.9432 14.6019 18.8722 15.5413 18.6453 16.4799ZM11.9161 27.9166C15.0608 29.8392 19.9754 29.8287 23.0762 27.9166C19.3454 27.9166 15.6689 27.9166 11.9161 27.9166Z" fill="white" stroke="white" stroke-width="0.5"/>
</svg>
