<svg width="35" height="35" viewBox="0 0 35 35" fill="none" xmlns="http://www.w3.org/2000/svg">
<g clip-path="url(#clip0_860_2924)">
<path d="M17.4999 34.9947C13.7971 34.9947 10.0934 35.0049 6.39058 34.9911C4.00188 34.9828 2.1277 33.5179 1.6414 31.1691C1.45198 30.2529 1.53121 29.277 1.51118 28.3277C1.50298 27.9391 1.45563 27.6031 1.22614 27.2541C0.743477 26.5221 0.711604 25.7073 0.982985 24.8703C1.02761 24.7322 1.00393 24.5066 0.917416 24.398C-0.666249 22.4092 -0.148985 19.8624 2.07853 18.6958C2.19236 18.636 2.27432 18.4574 2.30893 18.3183C2.34809 18.16 2.30438 17.9814 2.32077 17.8147C2.38269 17.1665 2.26886 16.6776 1.68147 16.2154C0.818153 15.5359 0.633285 14.5175 0.950201 13.4596C1.0522 13.1189 1.07861 12.839 0.942915 12.5048C0.663338 11.8189 0.890096 11.1421 1.07496 10.4801C1.7006 8.23534 2.92455 6.35888 4.60474 4.78534C7.19653 2.35828 10.2965 0.976249 13.7452 0.354751C17.999 -0.411302 22.1243 0.0499874 26.0603 1.86844C28.836 3.15011 31.1437 5.02197 32.7419 7.70408C33.4295 8.85868 33.8884 10.1008 34.1525 11.4193C34.1671 11.4938 34.189 11.5767 34.1716 11.6476C33.9932 12.375 34.2454 13.0287 34.4412 13.7156C34.7718 14.8766 34.1662 16.0929 33.0187 16.7071C32.7683 16.8415 32.6344 16.9768 32.68 17.2632C32.6891 17.323 32.6882 17.3866 32.68 17.4473C32.5798 18.1802 32.7674 18.6452 33.4914 19.0752C35.0951 20.0272 35.4703 22.4552 34.3702 23.9901C34.1798 24.2562 34.1434 24.4449 34.28 24.7607C34.7536 25.8555 34.535 26.8462 33.7546 27.7384C33.6125 27.9014 33.5169 28.1573 33.505 28.3765C33.4677 29.0808 33.5123 29.7898 33.4668 30.4923C33.3047 32.9912 31.3167 34.9552 28.8369 34.9809C25.0585 35.0205 21.2792 34.9911 17.4999 34.9911C17.4999 34.992 17.4999 34.9929 17.4999 34.9947ZM17.5072 12.6632C22.1817 12.6632 26.8553 12.6632 31.5298 12.6632C31.6819 12.6632 31.8339 12.6696 31.9851 12.6558C32.5516 12.6024 32.9331 12.1522 32.7838 11.6071C32.567 10.8125 32.3512 10.0022 32.0015 9.26381C30.5809 6.26773 28.1694 4.32313 25.2306 3.01016C22.0542 1.5913 18.7229 1.13646 15.2697 1.53145C12.0195 1.90343 9.03791 2.9678 6.44522 5.01092C4.39347 6.62866 2.89723 8.64968 2.29254 11.2618C2.05758 12.2792 2.35811 12.6623 3.39445 12.6623C8.09809 12.6632 12.8026 12.6632 17.5072 12.6632ZM2.87628 28.7153C2.87628 29.0845 2.86808 29.5863 2.8781 30.0872C2.91908 32.1432 4.37889 33.6072 6.41334 33.609C13.8026 33.6146 21.1909 33.6127 28.5801 33.6072C28.8806 33.6072 29.1912 33.5879 29.4789 33.5078C31.8476 32.8503 32.3949 30.8081 32.0534 28.6978C31.5935 28.6196 31.1318 28.5975 30.7084 28.4566C29.7731 28.1454 28.9316 28.2356 28.122 28.8212C27.7441 29.0947 27.3288 29.3515 26.8917 29.497C25.6987 29.892 24.5385 29.7567 23.5186 28.9915C22.2209 28.0174 21.0798 28.0487 19.8558 28.9805C19.5362 29.2236 19.1491 29.4086 18.7648 29.5265C17.4826 29.9206 16.3224 29.6222 15.2423 28.8442C14.1441 28.0533 13.1797 28.0818 12.0468 28.8378C11.6461 29.1057 11.2199 29.3709 10.7664 29.5164C9.47413 29.9298 8.28296 29.6499 7.20836 28.8304C6.52263 28.3074 5.77769 28.161 4.9335 28.3664C4.28418 28.5247 3.61393 28.5938 2.87628 28.7153ZM33.0342 25.3298C32.2957 25.4034 31.6382 25.5213 30.9797 25.5259C27.6858 25.5452 24.3919 25.583 21.0998 25.5075C19.9943 25.4826 19.1182 25.6898 18.4716 26.6197C18.4288 26.6814 18.366 26.7293 18.3077 26.7781C17.9571 27.0736 17.632 27.0828 17.2914 26.7726C16.9763 26.4853 16.6685 26.1851 16.388 25.8647C16.1676 25.6124 15.9254 25.5268 15.593 25.5268C11.6925 25.5378 7.7912 25.5369 3.89077 25.5286C3.49918 25.5277 3.10395 25.4872 2.71782 25.4181C2.24882 25.3344 2.18417 25.3647 2.19692 25.8491C2.20056 25.9844 2.22333 26.1244 2.26522 26.2523C2.52203 27.0414 3.36076 27.4355 4.23319 27.1427C5.54456 26.7035 6.76122 26.8223 7.91141 27.6334C9.22642 28.5606 10.0442 28.5487 11.3638 27.6399C12.8509 26.616 14.4628 26.6188 15.949 27.6473C17.2376 28.5394 18.0827 28.5422 19.3677 27.6574C20.8867 26.6114 22.4658 26.6114 23.9885 27.6583C25.2771 28.5441 26.0867 28.5192 27.4163 27.6611C27.8916 27.3545 28.438 27.1316 28.9808 26.9687C29.7184 26.7459 30.4506 26.9374 31.1682 27.1685C31.8103 27.3756 32.3804 27.2191 32.8166 26.7072C33.179 26.2846 33.2892 25.7938 33.0342 25.3298ZM33.0798 13.931C29.6192 14.1759 26.196 14.0102 22.7782 14.0406C19.3641 14.071 15.949 14.047 12.534 14.047C9.10803 14.047 5.68298 14.047 2.23699 14.047C2.11495 14.5645 2.32805 15.1031 2.83257 15.4171C3.30794 15.7127 3.80426 15.7173 4.3197 15.5442C5.6165 15.1096 6.81768 15.2753 7.94692 16.0791C9.2246 16.9879 10.0442 16.9676 11.362 16.0625C12.85 15.0405 14.4646 15.0433 15.9499 16.0644C16.1995 16.2366 16.4508 16.4207 16.7267 16.5367C17.6556 16.9289 18.5108 16.731 19.2912 16.1316C20.2128 15.4235 21.2601 15.1068 22.3729 15.3904C23.0578 15.5644 23.7007 15.9548 24.3227 16.3176C25.1387 16.7945 25.9473 16.8783 26.7934 16.464C27.0238 16.3507 27.2332 16.1924 27.4436 16.0432C28.5573 15.2541 29.7512 15.116 31.0362 15.5423C31.3149 15.6344 31.6372 15.6666 31.9277 15.6307C32.8211 15.523 33.3666 14.5967 33.0798 13.931ZM21.0843 24.1171C21.1608 24.1273 21.2319 24.1457 21.3029 24.1457C24.7024 24.1466 28.1029 24.1613 31.5025 24.1365C32.7692 24.1273 33.638 23.1688 33.618 21.9147C33.5979 20.6902 32.7109 19.8007 31.4515 19.7906C29.4935 19.7749 27.5356 19.7832 25.5776 19.7915C25.4383 19.7924 25.257 19.8311 25.1669 19.9232C23.8091 21.3043 22.4631 22.6964 21.0843 24.1171ZM12.0787 21.6035C11.5323 22.1689 10.9767 22.7517 10.4121 23.3262C9.85206 23.8962 9.56701 23.8943 9.00148 23.3235C7.91687 22.2287 6.83681 21.1284 5.74582 20.041C5.62743 19.9232 5.44803 19.8044 5.29321 19.798C4.64208 19.774 3.9873 19.7676 3.33617 19.8035C2.43733 19.8523 1.70151 20.4701 1.47566 21.3107C1.06403 22.841 2.02298 24.1374 3.6112 24.1438C7.14735 24.1586 10.6826 24.1494 14.2187 24.1466C14.3289 24.1466 14.4391 24.119 14.5366 24.1061C13.7224 23.2765 12.9256 22.4663 12.0787 21.6035ZM23.1279 19.8274C19.5999 19.8274 16.0201 19.8274 12.442 19.8274C14.2461 21.656 16.0319 23.4653 17.8514 25.3104C19.6063 23.4864 21.3776 21.6459 23.1279 19.8274ZM3.75326 18.3681C12.9292 18.3681 22.0988 18.3681 31.3103 18.3681C31.3103 17.9823 31.3231 17.6315 31.3021 17.2825C31.2966 17.1895 31.2074 17.0532 31.1254 17.0219C30.0536 16.6131 29.0464 16.557 28.0291 17.2963C26.4491 18.4454 24.9374 18.4436 23.3574 17.2963C22.3338 16.5524 21.0406 16.5386 19.9915 17.3046C18.4261 18.4472 16.8888 18.4417 15.3188 17.2899C14.3153 16.5542 13.0075 16.5478 11.9912 17.2862C10.3903 18.4482 8.87581 18.4316 7.27849 17.2871C6.41699 16.6702 5.54001 16.5524 4.57287 16.9069C4.27872 17.0146 3.8416 17.0496 3.7314 17.2586C3.58843 17.5311 3.70499 17.9436 3.71137 18.2953C3.71046 18.3073 3.72503 18.3202 3.75326 18.3681ZM11.1643 20.5567C10.8593 20.2942 10.587 19.8606 10.271 19.8256C9.38215 19.7262 8.47603 19.7906 7.59085 19.7906C8.32759 20.5373 9.04429 21.2629 9.76554 21.993C10.1854 21.5612 10.6398 21.0953 11.1643 20.5567Z" fill="white" stroke="white" stroke-width="0.5"/>
<path d="M20.3377 2.94629C21.5826 3.32287 22.8557 3.62487 24.066 4.09169C26.5102 5.03452 28.5893 6.50862 30.0737 8.73589C30.377 9.19073 30.6228 9.68885 30.8578 10.1842C31.0518 10.593 30.8997 10.9714 30.5281 11.1464C30.1839 11.3084 29.8296 11.174 29.6338 10.7606C28.134 7.59049 25.4639 5.92488 22.2865 4.92403C21.5653 4.69661 20.8121 4.57876 20.079 4.38908C19.702 4.29149 19.5381 4.01066 19.5864 3.62211C19.6282 3.28972 19.9506 3.04205 20.3377 2.94629Z" fill="white" stroke="white" stroke-width="0.5"/>
<path d="M16.7587 6.77802C16.7542 7.13342 16.4373 7.44187 16.0766 7.44279C15.7014 7.44371 15.41 7.15368 15.4082 6.7771C15.4064 6.38947 15.7333 6.058 16.0994 6.07642C16.4446 6.09299 16.7633 6.43274 16.7587 6.77802Z" fill="white" stroke="white" stroke-width="0.5"/>
<path d="M11.4659 6.77868C11.4605 7.14697 11.159 7.44253 10.7902 7.44161C10.4187 7.44069 10.1236 7.14697 10.1227 6.77592C10.1209 6.39381 10.4505 6.06142 10.8157 6.07616C11.1581 6.09089 11.4705 6.4288 11.4659 6.77868Z" fill="white" stroke="white" stroke-width="0.5"/>
<path d="M17.8471 3.27605C17.8599 3.62317 17.5521 3.95832 17.2005 3.98042C16.8208 4.00343 16.5039 3.69867 16.4993 3.30367C16.4948 2.91789 16.7652 2.6389 17.1495 2.63338C17.5156 2.62785 17.8344 2.92249 17.8471 3.27605Z" fill="white" stroke="white" stroke-width="0.5"/>
<path d="M19.1402 10.4827C18.7632 10.4735 18.4827 10.1807 18.49 9.80411C18.4973 9.43766 18.8015 9.1246 19.1539 9.12184C19.5191 9.11908 19.8442 9.46528 19.8296 9.84002C19.815 10.2148 19.5172 10.4919 19.1402 10.4827Z" fill="white" stroke="white" stroke-width="0.5"/>
<path d="M8.16466 9.36208C8.15464 9.73221 7.85139 10.0259 7.48803 10.0186C7.12194 10.0112 6.83234 9.71103 6.83325 9.3409C6.83416 8.94958 7.15381 8.63745 7.53174 8.65955C7.89966 8.68073 8.17559 8.98733 8.16466 9.36208Z" fill="white" stroke="white" stroke-width="0.5"/>
<path d="M14.3475 8.65746C14.7136 8.67127 14.9977 8.97603 14.9923 9.34985C14.9868 9.74209 14.6662 10.0441 14.2819 10.0174C13.9149 9.99161 13.6435 9.6804 13.6618 9.3075C13.6809 8.93276 13.986 8.64365 14.3475 8.65746Z" fill="white" stroke="white" stroke-width="0.5"/>
</g>
<defs>
<clipPath id="clip0_860_2924">
<rect width="35" height="35" fill="white"/>
</clipPath>
</defs>
</svg>
