<svg width="68" height="52" viewBox="0 0 68 52" fill="none" xmlns="http://www.w3.org/2000/svg">
<path d="M41.2777 1C38.6376 1 36.4748 3.12581 36.4166 5.75248C36.4591 7.86629 37.3964 9.01423 38.4783 9.81034C37.6544 10.2136 36.9366 10.8756 36.4817 11.7851C35.1551 15.0792 34.15 18.5908 32.9879 21.5716C32.1987 23.2025 32.2009 25.3793 33.0096 26.9967C33.3357 27.4497 33.8728 27.7906 34.2682 28.0817H31.5556V14.1935C31.5555 13.8299 31.2247 13.4992 30.8611 13.4991C25.9609 13.4991 21.037 13.4991 16.1476 13.4991C15.8293 13.5595 15.5777 13.8694 15.5834 14.1935V28.7761C15.5834 29.1397 15.9142 29.4704 16.2778 29.4705H21.9636L22.5495 32.3784C22.6089 32.6896 22.9054 32.9383 23.2222 32.9427H23.6563L23.3524 33.854C22.1659 34.3374 20.7308 35.3116 19.4679 36.827C18.0881 38.4827 16.9722 40.73 16.9722 43.3588C16.9723 43.7224 17.3031 44.0531 17.6667 44.0532H19.7934C20.035 46.4965 21.5458 48.5763 23.6563 49.6085C20.0007 49.6085 16.3198 49.6085 12.6754 49.6085C12.3118 49.6426 12.0119 50.0044 12.046 50.368C12.0801 50.7316 12.442 51.0315 12.8056 50.9974H66.9722C67.3391 51.0043 67.6666 50.6698 67.6666 50.303C67.6666 49.936 67.3391 49.6033 66.9722 49.6085H63.0225C65.3494 48.4851 66.9722 46.1094 66.9722 43.3588C66.9722 41.2062 65.9773 39.2739 64.4331 37.9987L66.625 36.7619C66.9895 36.5517 67.0697 35.9789 66.7769 35.6769C65.2469 34.1023 63.008 33.1315 60.6788 32.9427C59.9786 32.8599 59.2675 32.9218 58.6172 32.9864C57.2499 30.1554 55.772 27.0142 54.3203 24.1109L57.1415 24.5883C57.5322 24.6501 57.9369 24.311 57.9444 23.9156V18.3603C57.9444 17.9967 57.6136 17.6659 57.25 17.6658C54.5116 17.5985 51.4911 17.8455 49.329 18.2518C49.0499 18.3004 48.8137 18.5369 48.7647 18.8159L45.9219 18.4037C45.0597 16.1953 44.1261 13.9963 43.296 11.7847C43.0515 11.2958 42.8009 10.8763 42.5365 10.5262C44.5734 9.97299 46.0982 8.14528 46.1389 5.94736L47.5712 5.86056C47.9348 5.83764 48.2449 5.4863 48.2222 5.12275C48.1995 4.75914 47.848 4.449 47.4844 4.47171L45.9653 4.58022C45.4625 2.34064 43.3266 1.01424 41.2777 1ZM41.2777 2.3888C42.7872 2.3888 44.0516 3.32938 44.5329 4.66736L37.8923 5.12314C38.4242 3.32807 39.6932 2.46144 41.2777 2.3888ZM44.7283 6.05617C44.6244 7.88693 43.1357 9.33299 41.2777 9.33299C39.5778 9.33299 38.1767 8.11909 37.8706 6.51194L44.7283 6.05617ZM40.5833 10.7218C41.2617 10.8333 41.7311 11.7905 42.0373 12.3926C42.9492 14.7091 43.887 17.0237 44.8151 19.3366C44.9111 19.541 45.1128 19.6922 45.3359 19.7273C46.9275 19.9489 48.5181 20.1841 50.1102 20.3999C50.7816 20.5981 50.9595 20.9321 51.065 21.4416C51.0454 22.0658 50.7371 22.2926 50.3489 22.505L43.7951 21.203L41.8636 17.9912C41.5881 17.5577 40.806 17.6401 40.6267 18.1214L39.4114 21.7671L34.5937 21.2246C35.7978 18.0858 36.6909 15.1444 37.7404 12.4142C38.3824 11.224 39.5409 10.7406 40.5833 10.7218ZM16.9722 14.8883H30.1666V28.0821H16.9722V14.8883ZM56.5555 19.0764V23.091L53.1918 22.5268C52.6874 22.4396 52.2226 23.0685 52.4539 23.5251L57.0763 32.7695C54.3356 34.9687 51.1961 38.7728 48.5694 42.6648H35.7005C35.6642 40.8412 35.49 39.239 34.9843 37.8907C34.4145 36.3713 33.3932 35.1638 31.8593 34.397C29.8767 33.5133 27.0625 33.282 24.8715 33.616L25.1102 32.9433H37.1545C37.1905 34.7858 37.3388 36.5091 37.8489 37.8693C38.1372 38.6378 38.5333 39.3085 39.1076 39.8007C39.6819 40.2929 40.4386 40.5819 41.2777 40.5819H48.2222C48.4296 40.582 48.635 40.4834 48.7647 40.3215C50.0865 38.6142 51.2404 37.389 52.1501 35.7426C52.2638 35.5267 52.3888 35.4027 52.3888 35.0265C52.3888 30.8022 51.8477 27.9431 51.3038 25.5652C51.1655 24.9609 51.0172 24.3887 50.8914 23.8291C51.9946 23.3975 52.3328 22.4856 52.4539 21.4421C52.4152 20.4079 51.9663 19.9111 51.2387 19.3806C53.1611 19.1452 55.0311 19.0802 56.5555 19.0764ZM41.4513 19.9879L42.7751 22.1796C42.8732 22.3449 43.0427 22.466 43.2309 22.5052L49.4809 23.7637C49.64 24.4524 49.7918 25.1408 49.9583 25.8687C50.4887 28.1877 50.9926 30.8814 51 34.9394C50.6028 35.7215 49.9916 36.5068 49.5026 37.1529C49.1353 36.8602 48.6581 36.6933 48.2656 36.5453C48.4796 33.9568 48.7098 31.3624 48.9166 28.7769C48.9166 27.9667 48.6786 27.1935 48.1137 26.6285C47.5487 26.0636 46.747 25.6883 45.6614 25.3265C43.8123 24.903 41.942 24.4994 40.0842 24.0898L41.4513 19.9879ZM34.0946 22.5702L38.9557 23.1128L38.5434 24.3713C38.4112 24.7397 38.6609 25.1956 39.0425 25.2829C41.1245 25.7506 43.214 26.191 45.2925 26.6715C46.2334 26.9928 46.822 27.3112 47.1154 27.6045C47.4135 27.9026 47.5244 28.1952 47.5277 28.7547C47.3138 31.3081 47.0943 33.8614 46.8767 36.4147H44.1423L44.7499 30.2302C44.7882 29.8853 44.5269 29.5335 44.1857 29.4706C40.8933 28.5657 36.5864 28.471 34.2465 26.2805C33.7168 25.0089 33.7509 23.6666 34.0946 22.5702ZM2.38889 24.6101V25.9989H14.1944V24.6101H2.38889ZM23.3741 29.4709C28.2176 29.4709 33.6203 29.4709 38.0442 29.4709C39.5325 29.6831 39.7613 30.2736 39.8237 31.5542H23.7864L23.3741 29.4709ZM3.77777 30.1654V31.5542H16.9722V30.1654H3.77777ZM41.1692 30.2739L43.296 30.7078L42.6883 36.8925C41.9548 37.4765 41.6952 38.3878 41.4513 39.1928C40.8856 39.2393 40.401 38.9538 40.0191 38.7371C39.6819 38.4481 39.3836 37.9901 39.151 37.3699C38.7398 36.2733 38.5609 34.7033 38.5217 32.9431H40.5833C40.9469 32.943 41.2777 32.6122 41.2777 32.2486C41.2777 31.5547 41.2912 30.8908 41.1692 30.2739ZM1 34.3319V35.7207H16.9722V34.3319H1ZM60.592 34.3749C62.2417 34.5132 63.7452 35.1792 64.9539 36.0892L51.7812 43.5108C51.8716 41.8901 52.1238 40.6365 52.519 39.5831C53.9123 37.8153 55.3367 36.2214 56.664 34.9608C58.0652 34.4291 59.2329 34.3231 60.592 34.3749ZM31.2517 35.6335C32.4957 36.2554 33.2104 37.1313 33.6823 38.3895C34.0978 39.4974 34.2725 40.9438 34.3116 42.6644H18.4913C18.6736 40.7429 19.4652 39.022 20.5529 37.7167C21.7291 36.3053 23.1652 35.3489 24.0252 35.0258C25.9129 34.5771 29.2888 34.7464 31.2517 35.6335ZM44.0555 37.8038H47.5277C47.9701 37.887 48.311 38.0312 48.6562 38.2378C48.2795 38.7032 47.975 39.072 47.875 39.1926H42.9053C43.0738 38.3816 43.5371 37.997 44.0555 37.8038ZM5.16666 38.4982V39.887H16.9722V38.4982H5.16666ZM63.1093 38.737C64.6006 39.7313 65.5833 41.4257 65.5833 43.3591C65.5833 46.4353 63.1042 48.9144 60.0277 48.9144C57.0251 48.9144 54.5873 46.5494 54.4722 43.5761L56.7291 42.3175C56.6233 42.6487 56.5555 42.9939 56.5555 43.3591C56.5555 45.2684 58.1183 46.8312 60.0277 46.8312C61.9372 46.8312 63.4999 45.2684 63.4999 43.3591C63.4999 41.7361 62.3637 40.3708 60.8524 39.9955L63.1093 38.737ZM60.0277 41.2758C61.1865 41.2758 62.1111 42.2003 62.1111 43.3591C62.1111 44.5178 61.1865 45.4423 60.0277 45.4423C58.8689 45.4423 57.9444 44.5178 57.9444 43.3591C57.9444 42.2003 58.8689 41.2758 60.0277 41.2758ZM50.4357 42.3827C50.3539 43.1044 50.3055 43.8868 50.3055 44.7479C50.3162 45.2275 50.9317 45.5737 51.3472 45.3338L53.1701 44.3139C53.494 46.6518 54.9881 48.617 57.0329 49.6088H29.7326C31.8431 48.5766 33.3538 46.4968 33.5955 44.0535H48.9166C49.1498 44.0535 49.3787 43.9255 49.5026 43.728C49.803 43.2774 50.1202 42.8308 50.4357 42.3827ZM21.1823 44.0535H23.2873C23.6125 45.6318 25.0237 46.8312 26.6944 46.8312C28.3652 46.8312 29.7763 45.6318 30.1015 44.0535H32.2066C31.8647 46.798 29.5342 48.9144 26.6944 48.9144C23.8547 48.9144 21.5242 46.798 21.1823 44.0535ZM24.7196 44.0535H28.6692C28.3867 44.8675 27.61 45.4423 26.6944 45.4423C25.7788 45.4423 25.0022 44.8675 24.7196 44.0535Z" fill="white" stroke="white" stroke-width="0.5"/>
</svg>
