<svg width="50" height="50" viewBox="0 0 50 50" fill="none" xmlns="http://www.w3.org/2000/svg">
<path d="M49.1803 18.021H26.2295C26.0121 18.021 25.8036 18.1073 25.6499 18.2609C25.4962 18.4145 25.4098 18.6229 25.4098 18.8401V24.3447L23.3689 23.8368L21.1475 21.6088L21.3115 21.445C24.1721 18.3404 23.7705 13.2536 23.7705 13.1062C26.7787 13.1062 28.9508 12.287 29.7213 10.8372C29.9683 10.3408 30.0664 9.78368 30.0039 9.23288C29.9414 8.68207 29.7208 8.16108 29.3689 7.73263C28.9974 7.12238 28.475 6.61795 27.852 6.2679C27.2289 5.91785 26.5262 5.73396 25.8115 5.73395C25.7213 5.73395 25.6311 5.73395 25.541 5.73395C25.4973 5.73044 25.4535 5.73044 25.4098 5.73395H22.8607C22.6894 4.4074 22.1099 3.1668 21.2025 2.18363C20.295 1.20047 19.1044 0.523297 17.7951 0.24574C17.7192 0.168342 17.6286 0.106767 17.5287 0.0645848C17.4288 0.0224021 17.3216 0.00044991 17.2131 0C16.918 0 16.6311 -3.96697e-08 16.3934 0.0409567C16.1557 0.0819135 15.8525 0 15.5738 0C7.01639 0 5.7377 4.09568 5.7377 6.55308V10.6488C5.74627 11.2964 5.99446 11.9179 6.43443 12.3935C5.93874 13.0739 5.6927 13.9041 5.7377 14.7444C5.70486 15.5139 5.95791 16.2684 6.44818 16.8627C6.93845 17.457 7.6313 17.8491 8.39344 17.9636C8.73645 19.0073 9.26392 19.9811 9.95082 20.8388L6.79508 23.9925C6.71406 24.0732 6.65084 24.1699 6.60949 24.2765C6.56814 24.3831 6.54956 24.4971 6.55497 24.6113C6.56037 24.7255 6.58963 24.8373 6.64087 24.9395C6.6921 25.0417 6.76418 25.1321 6.85246 25.2048L7.05738 25.3768L3.51639 28.9073C3.15574 29.2677 0 32.5033 0 35.2228C0.00076933 35.351 0.0316525 35.4773 0.0901638 35.5914L4.18852 43.7828C4.23976 43.8837 4.31136 43.9729 4.39883 44.0448C4.4863 44.1167 4.58773 44.1698 4.69672 44.2005C5.32127 44.3581 5.96243 44.4406 6.60656 44.4463C6.61507 44.4994 6.6288 44.5515 6.64754 44.6019V44.6592C6.58516 44.7807 6.55417 44.9159 6.55738 45.0524V49.1481C6.55738 49.3653 6.64374 49.5737 6.79745 49.7273C6.95117 49.8809 7.15966 49.9672 7.37705 49.9672C7.59444 49.9672 7.80293 49.8809 7.95664 49.7273C8.11036 49.5737 8.19672 49.3653 8.19672 49.1481V46.8873C9.43443 48.329 11.3852 49.9672 13.9344 49.9672C16.4836 49.9672 21.1393 48.329 25.2459 46.8136L27.3197 46.0682C27.5 46.0026 27.6885 45.9617 27.8689 45.9043V49.1809C27.8689 49.3981 27.9552 49.6065 28.1089 49.7601C28.2626 49.9137 28.4711 50 28.6885 50C28.9059 50 29.1144 49.9137 29.2681 49.7601C29.4218 49.6065 29.5082 49.3981 29.5082 49.1809V45.462C30.8486 45.1357 32.228 44.9979 33.6066 45.0524H39.3443C40.7459 45.0524 42.6229 44.5282 43.1885 43.0537C43.3553 42.6483 43.4416 42.2143 43.4426 41.7759H49.1803C49.3977 41.7759 49.6062 41.6896 49.7599 41.536C49.9136 41.3823 50 41.174 50 40.9568V18.8401C50 18.6229 49.9136 18.4145 49.7599 18.2609C49.6062 18.1073 49.3977 18.021 49.1803 18.021ZM40.1639 19.6592V24.0662L38.0738 23.0177C37.9604 22.9614 37.8356 22.9321 37.709 22.9321C37.5825 22.9321 37.4576 22.9614 37.3443 23.0177L35.2459 24.0662V19.6592H40.1639ZM16.3361 24.271V24.2218L16.2869 24.1399C16.2478 24.0794 16.201 24.0243 16.1475 23.9761V23.9269L15.8115 23.7549C16.6946 23.7423 17.5706 23.5959 18.4098 23.3208L18.082 24.2955L17.2131 26.4663L16.3361 24.271ZM20.2377 23.0177L21.959 24.7379L21.1393 26.3024L19.7295 24.4266L20.2377 23.0177ZM21.6967 7.37222C20.9683 7.93977 20.3323 8.61677 19.8115 9.3791C18.4754 11.3778 17.2131 11.4679 17.2131 11.4679H12.8607C13.2084 11.0997 13.5238 10.7024 13.8033 10.2801C14.7541 8.83847 16.5246 7.37222 18.0328 7.37222H21.6967ZM28.0082 8.64187C28.1808 8.83119 28.2975 9.06465 28.3452 9.31628C28.393 9.56791 28.3699 9.82784 28.2787 10.0672C27.9344 10.7143 26.541 11.4679 23.7705 11.4679H23.6967C23.62 10.4151 23.4164 9.3755 23.0902 8.37156C23.8795 7.7789 24.8259 7.43136 25.8115 7.37222C26.257 7.37206 26.6947 7.48936 27.0804 7.71228C27.4661 7.9352 27.7861 8.25585 28.0082 8.64187ZM7.37705 6.55308C7.37705 3.60419 9.72951 2.35092 12.4426 1.88401C11.3018 3.17331 10.667 4.83202 10.6557 6.55308C10.6557 6.77033 10.7421 6.97868 10.8958 7.1323C11.0495 7.28591 11.258 7.37222 11.4754 7.37222C11.6928 7.37222 11.9013 7.28591 12.055 7.1323C12.2087 6.97868 12.2951 6.77033 12.2951 6.55308C12.2951 6.07798 12.4508 2.13794 16.4344 1.67923C19.9754 2.02326 20.9508 4.42333 21.2131 5.72575H18.0328C15.8443 5.72575 13.6393 7.55242 12.4344 9.3709C11.0984 11.3778 9.83607 11.4679 9.83607 11.4679H8.19672C8.08623 11.4795 7.97455 11.4663 7.86983 11.4292C7.76511 11.3921 7.67 11.3321 7.59145 11.2536C7.51289 11.1751 7.45287 11.0801 7.41578 10.9754C7.37869 10.8708 7.36545 10.7592 7.37705 10.6488V6.55308ZM9.01639 16.3827C8.79736 16.3972 8.57776 16.3647 8.3723 16.2875C8.16684 16.2103 7.98025 16.0901 7.82503 15.935C7.66981 15.7799 7.54955 15.5934 7.47229 15.3881C7.39503 15.1828 7.36256 14.9633 7.37705 14.7444C7.37705 13.2454 8.06557 13.1062 8.19672 13.1062H9.83607C10.0046 13.1019 10.1722 13.0799 10.3361 13.0406C10.4372 13.0837 10.5459 13.1059 10.6557 13.1062H17.2131C17.4262 13.1062 19.3443 13.0242 21.1721 10.2801C21.3415 10.0354 21.5277 9.80271 21.7295 9.58388C22.0108 10.7587 22.1458 11.9638 22.1311 13.1717C22.1311 13.2208 22.4754 17.767 20.0984 20.3391C19.5147 20.9408 18.809 21.4108 18.0286 21.7174C17.2482 22.0239 16.4112 22.1601 15.5738 22.1166C15.5328 22.1166 11.2541 22.0593 9.83607 16.9807C9.78648 16.8035 9.67866 16.6481 9.52997 16.5397C9.38127 16.4312 9.20037 16.3759 9.01639 16.3827ZM10.7623 22.3542L14.377 24.7625L12.1803 27.5066L8.59016 24.5167L10.7623 22.3542ZM1.63934 35.0426C1.77869 33.3142 3.85246 30.8814 4.67213 30.0623L8.31148 26.4253L11.7623 29.3005C11.9119 29.4244 12.1008 29.4912 12.2951 29.4889H12.377C12.4854 29.4779 12.5906 29.4454 12.6863 29.3934C12.782 29.3414 12.8663 29.2708 12.9344 29.1858L15.3361 26.2123L16.4508 29.0056C16.5112 29.1584 16.6162 29.2895 16.7522 29.3818C16.8881 29.4742 17.0487 29.5236 17.2131 29.5236C17.3775 29.5236 17.5381 29.4742 17.674 29.3818C17.81 29.2895 17.915 29.1584 17.9754 29.0056L19.0738 26.2123L20.6557 28.3421C20.7392 28.4544 20.8501 28.5435 20.9778 28.6009C21.1055 28.6582 21.2458 28.6819 21.3852 28.6697C21.5238 28.6565 21.6568 28.6081 21.7715 28.5293C21.8862 28.4505 21.979 28.3438 22.041 28.2192L23.3852 25.5324L25.4016 26.0403V39.04C24.1475 39.4414 22.7131 39.9246 21.1066 40.4571C19.8443 40.883 18.6475 41.2762 17.5246 41.6448C16.828 41.8735 16.0747 41.8622 15.3853 41.6127C14.6958 41.3632 14.11 40.89 13.7213 40.2687L13.1148 39.3185C13.1116 39.1833 13.075 39.0511 13.0082 38.9335L10.5492 34.8378C10.4267 34.6825 10.2522 34.5767 10.0579 34.54C9.86348 34.5032 9.66235 34.5379 9.49158 34.6377C9.3208 34.7375 9.19191 34.8956 9.12868 35.083C9.06545 35.2703 9.07215 35.4742 9.14754 35.6569L11.418 39.4414C10.1311 43.2667 6.60656 42.9309 5.4918 42.7179L1.63934 35.0426ZM41.6639 42.4148C41.4098 43.0537 40.2705 43.3978 39.3361 43.3978H33.6639C31.3186 43.3248 28.9811 43.703 26.7787 44.5118L24.6885 45.2572C20.9098 46.6334 16.2049 48.329 13.9344 48.329C11.0492 48.329 9.01639 45.3801 8.34426 44.2824C9.21272 44.1123 10.0319 43.7494 10.7412 43.2206C11.4506 42.6918 12.032 42.0105 12.4426 41.2271C13.0327 42.119 13.8977 42.7943 14.9066 43.1506C15.9154 43.5069 17.013 43.5246 18.0328 43.2012C19.123 42.849 20.3689 42.4312 21.6393 42.0052C25.2049 40.8093 29.6393 39.3185 30.8279 39.3185H36.5656C36.783 39.3185 36.9915 39.4048 37.1452 39.5584C37.2989 39.712 37.3852 39.9204 37.3852 40.1376H35.2459C35.0285 40.1376 34.82 40.2239 34.6663 40.3775C34.5126 40.5312 34.4262 40.7395 34.4262 40.9568C34.4262 41.174 34.5126 41.3823 34.6663 41.536C34.82 41.6896 35.0285 41.7759 35.2459 41.7759H40.9836C41.2626 41.777 41.5396 41.8241 41.8033 41.9151C41.7855 42.0927 41.7413 42.2667 41.6721 42.4312L41.6639 42.4148ZM48.3607 40.1376H41.8033C41.7276 40.1437 41.6531 40.1602 41.582 40.1868C41.3839 40.1568 41.1839 40.1404 40.9836 40.1376H39.0082C39.0082 39.4859 38.7491 38.8608 38.288 38.4C37.8268 37.9391 37.2014 37.6802 36.5492 37.6802H30.8115C29.5295 37.8046 28.2667 38.0796 27.0492 38.4993V19.6592H33.6066V25.3932C33.607 25.5328 33.6431 25.67 33.7115 25.7918C33.7799 25.9135 33.8784 26.0158 33.9974 26.0888C34.1165 26.1619 34.2523 26.2033 34.3919 26.2091C34.5315 26.215 34.6703 26.1851 34.7951 26.1222L37.7049 24.6723L40.6148 26.1304C40.7402 26.1936 40.8797 26.2235 41.02 26.2172C41.1603 26.211 41.2966 26.1689 41.4159 26.0949C41.5352 26.0209 41.6335 25.9175 41.7013 25.7946C41.7691 25.6717 41.8043 25.5335 41.8033 25.3932V19.6592H48.3607V40.1376Z" fill="white"/>
</svg>
