<svg width="54" height="50" viewBox="0 0 54 50" fill="none" xmlns="http://www.w3.org/2000/svg">
<path d="M0.0421132 36.3189C0.0421132 35.9939 0.0421132 35.6831 0.0421132 35.3582C0.266717 33.6911 1.31955 32.7304 2.76543 32.1087C3.3129 31.8686 3.28483 31.8827 3.14445 31.3317C2.91985 30.4416 2.58294 29.707 1.88105 29.0147C0.547471 27.6867 0.575547 24.96 1.78279 23.3212C2.1197 22.8691 2.232 22.5017 2.02143 21.9366C1.61434 20.8629 1.7126 19.7892 2.24604 18.7578C2.38641 18.4753 2.40045 18.3057 2.06355 18.1362C0.92649 17.5993 0.238641 16.6952 0.0421132 15.4378C0.0421132 14.7596 0.0421132 14.0956 0.0421132 13.4175C0.18249 11.2842 1.05283 9.43339 2.41449 7.83693C3.66385 6.36762 5.17992 5.20913 6.89252 4.29082C10.1914 2.55308 13.7149 1.56412 17.3506 0.885983C21.0987 0.193714 24.8889 -0.0888453 28.6931 0.0241783C29.5073 0.0524342 30.3355 0.0665621 31.1497 0.221969C31.7674 0.334993 32.006 0.617552 32.0341 1.26744C31.7674 1.91732 31.4164 2.1575 30.7426 2.10099C28.2018 1.84668 25.675 1.88907 23.1342 2.10099C20.0459 2.36942 16.9997 2.82151 14.0096 3.59855C12.5216 4.00826 11.0477 4.47448 9.62988 5.08198C7.62248 5.95791 5.74143 7.04577 4.21132 8.65635C2.66717 10.2952 1.88105 12.2449 1.78279 14.4771C1.74068 15.6497 2.42853 16.455 3.59366 16.6245C3.86037 16.6669 4.11305 16.6528 4.37977 16.6528C19.4563 16.6528 34.5188 16.6528 49.5953 16.6528C49.6655 16.6528 49.7357 16.6528 49.8058 16.6528C51.5465 16.6386 52.3747 15.6921 52.1642 13.9402C51.8694 10.8886 50.2551 8.67048 47.8125 6.97513C45.5243 5.37867 42.9554 4.38971 40.2883 3.66919C38.4072 3.16058 36.4981 2.77913 34.5749 2.5107C33.6625 2.38355 33.3817 2.08686 33.4098 1.33808C33.6765 0.730576 33.9853 0.518656 34.5749 0.603424C38.1966 1.11203 41.7622 1.9032 45.1453 3.35837C47.5738 4.40384 49.7918 5.77425 51.5465 7.80868C53.0907 9.60292 53.961 11.6797 53.9891 14.0815C54.0031 14.8726 54.0593 15.6638 53.6662 16.4126C53.2732 17.1614 52.7538 17.7547 51.9957 18.1079C51.6588 18.2634 51.5606 18.4329 51.743 18.7861C52.3046 19.9022 52.3467 21.0607 51.8554 22.2192C51.6729 22.643 51.8694 22.8973 52.094 23.1658C53.3855 24.734 53.3714 27.6726 52.0098 29.2266C51.9677 29.2832 52.0378 29.2266 51.9817 29.269C51.1956 29.7635 51.0412 30.6112 50.7885 31.4165C50.6762 31.7838 50.7323 31.9533 51.0973 32.0805C52.2624 32.5043 53.1609 33.2531 53.7083 34.4116C53.961 34.9626 54.0031 35.5418 53.961 36.1211C53.9329 36.5873 53.6381 36.8557 53.1749 36.884C52.6976 36.884 52.3607 36.6862 52.2344 36.2058C52.0659 34.4964 50.9289 33.7052 49.0057 33.6346C48.0371 33.5922 47.0825 33.6204 46.1139 33.6204C42.4782 33.6204 38.8424 33.6487 35.2206 33.6063C34.3784 33.5922 33.7748 33.8465 33.1852 34.454C31.7112 36.0222 29.8442 36.446 27.7807 36.0222C26.5453 35.7679 25.5627 35.0756 24.7204 34.1573C24.3695 33.7758 23.9905 33.5922 23.4851 33.6063C22.3481 33.6204 21.211 33.6204 20.0599 33.6063C19.6949 33.6063 19.3721 33.6628 19.1053 33.9454C18.8105 34.2421 18.4456 34.4116 18.0385 34.4964C17.6595 34.567 17.5331 34.793 17.5331 35.1745C17.5191 36.1211 17.5752 37.0818 17.4349 38.0284C17.112 40.1617 15.3011 41.7016 13.0551 41.6734C10.9775 41.6451 9.23682 40.0486 9.02626 37.9295C8.91395 36.8275 9.06837 35.7114 9.02626 34.5953C8.99818 33.6204 9.01222 33.5922 8.01554 33.6204C6.72407 33.6487 5.41856 33.5215 4.12709 33.7193C3.00407 33.8889 2.20392 34.4398 1.8249 35.5418C1.57223 36.2765 1.78279 37.0111 1.86702 37.7458C2.13373 40.0204 3.14445 41.9418 4.70264 43.5665C4.82898 43.6937 4.95532 43.8067 5.06762 43.948C5.46067 44.4142 5.47471 44.725 5.12377 45.276C4.54822 45.6716 4.22536 45.6574 3.73403 45.2053C1.95124 43.5806 0.772075 41.5745 0.210566 39.2151C0.0842263 38.6924 0.12634 38.1414 0 37.6045C0 37.3926 0 37.1807 0 36.9688C0.12634 36.7427 0.12634 36.5308 0.0421132 36.3189Z" fill="black"/>
<path d="M31.9379 1.23926C32.4573 1.28164 32.9767 1.32403 33.4961 1.36641C33.5522 2.04455 33.7067 2.22821 34.3664 2.32711C37.3424 2.7792 40.2903 3.37258 43.126 4.43217C45.5405 5.33636 47.8146 6.48073 49.6535 8.34561C51.1555 9.87143 52.1241 11.6516 52.2645 13.8414C52.4189 15.0705 52.4189 15.0846 51.2257 15.0846C37.4126 15.0846 23.5855 15.0846 9.77233 15.0846C8.32645 15.0846 7.25958 14.5337 6.64192 13.1915C6.3752 12.6264 6.36117 12.033 6.41732 11.4255C6.57173 9.65951 7.07709 8.00654 8.08781 6.52311C8.50894 5.90148 8.97218 5.33636 9.61792 4.94078C11.3726 4.12136 13.2116 3.59862 15.0926 3.17479C19.3461 2.21409 23.6416 1.70548 28.0073 1.79025C28.9198 1.80438 29.8182 1.88914 30.7307 1.95978C31.4606 2.01629 31.6571 1.90327 31.9379 1.23926Z" fill="#FEB555"/>
<path d="M1.7214 35.5702C1.90389 34.5812 2.78827 33.7194 3.91129 33.5781C5.56774 33.3803 7.23823 33.5357 8.90872 33.4934C9.21755 33.4934 9.16139 33.7194 9.16139 33.9031C9.16139 34.9909 9.14736 36.0929 9.14736 37.1807C9.13332 39.3141 10.3686 40.967 12.2778 41.3909C14.9449 41.9842 17.3033 40.0911 17.3875 37.2938C17.4156 36.5026 17.4015 35.7114 17.3875 34.9061C17.3875 34.5671 17.4717 34.3834 17.8507 34.3552C18.3701 34.3269 18.8334 34.1009 19.1703 33.677C19.3107 33.4934 19.4791 33.4792 19.6756 33.4792C21.0935 33.4792 22.5113 33.4934 23.9431 33.4792C24.2941 33.4792 24.4906 33.6346 24.7012 33.8748C25.5855 34.8496 26.5962 35.6125 27.9018 35.881C29.9372 36.3048 31.7481 35.7962 33.1799 34.2704C33.7555 33.6629 34.3451 33.4651 35.1452 33.4792C39.7917 33.5075 44.4382 33.4934 49.0847 33.4934C49.7023 33.4934 50.306 33.5499 50.8675 33.8466C51.822 34.341 52.3695 35.0898 52.3555 36.2059C52.2712 36.7993 51.9484 37.2938 51.6536 37.7882C50.2779 40.0911 48.2565 41.6593 45.8841 42.7895C43.2169 44.0469 40.3813 44.6403 37.4474 44.8663C36.6613 44.9229 35.8752 44.9511 35.0891 44.9511C29.3196 44.9511 23.5501 45.0076 17.7806 44.937C14.2992 44.8946 10.9021 44.2165 7.75762 42.6483C5.25891 41.405 3.18132 39.6531 1.91793 37.0677C1.69333 36.5732 1.6091 36.0929 1.7214 35.5702Z" fill="#FEB555"/>
<path d="M1.72016 35.5701C1.66401 36.8557 2.45012 37.8023 3.13797 38.7206C4.76635 40.868 6.95623 42.2526 9.44091 43.1992C11.3641 43.9338 13.3434 44.3718 15.3789 44.5978C16.6844 44.7391 17.9899 44.7956 19.2954 44.7956C24.7841 44.7956 30.2729 44.8097 35.7616 44.7815C38.9061 44.7674 41.9944 44.2588 44.9142 43.0579C48.0868 41.744 50.6837 39.7661 52.1437 36.5166C52.1998 36.4036 52.27 36.3047 52.3402 36.2058C52.5086 36.5308 52.7473 36.7568 53.1263 36.7851C53.0702 37.3078 53.028 37.8447 52.9719 38.3674C52.3402 38.5793 52.1016 39.0738 51.905 39.6813C51.0908 42.2243 49.4344 44.1175 47.2164 45.5303C44.6054 47.1832 41.7136 47.9603 38.6955 48.3276C36.9127 48.5395 35.1299 48.5536 33.3472 48.5395C28.2655 48.5254 23.1838 48.5819 18.1022 48.5113C14.691 48.4689 11.3781 47.8472 8.26174 46.3497C8.21962 46.3214 8.16347 46.3073 8.12136 46.279C7.58793 45.8693 7.01238 45.7987 6.39472 46.053C5.97359 45.7563 5.55246 45.4596 5.11729 45.1488C5.42612 44.5413 5.384 44.3435 4.85057 43.8208C2.66069 41.7016 1.67805 39.0738 1.63593 36.0504C1.63593 35.9091 1.60786 35.7255 1.72016 35.5701Z" fill="#FEA633"/>
<path d="M9.62014 4.95483C8.91825 5.71774 8.24444 6.49478 7.73909 7.4131C7.17758 8.44444 6.84067 9.54642 6.67222 10.7049C6.57395 11.3972 6.48973 12.0894 6.67222 12.7958C6.98105 13.9826 8.14618 14.915 9.36746 14.915C23.5034 14.915 37.6254 14.915 51.7614 14.9292C52.1404 14.9292 52.3229 14.8444 52.2667 14.4347C52.2387 14.251 52.2667 14.0532 52.2667 13.8554C52.6598 15.6497 51.7473 16.7941 49.9365 16.7941C34.6494 16.7941 19.3623 16.7941 4.0612 16.7941C2.30649 16.7941 1.4923 15.8616 1.63268 14.0815C1.88535 11.0016 3.45758 8.74112 5.87207 6.98926C7.05124 6.14158 8.28656 5.44931 9.62014 4.95483Z" fill="#FEA633"/>
<path d="M15.6946 37.9152C15.3857 39.2291 14.1785 40.0768 12.873 39.9073C11.6096 39.7377 10.7392 38.7064 10.7392 37.3642C10.7392 35.8808 10.7533 34.3974 10.7533 32.9139C10.7533 32.2499 10.8515 32.151 11.4832 32.0804C12.5782 31.9674 13.3783 31.1056 13.3924 29.9895C13.4064 28.7321 13.4064 27.4888 13.3924 26.2314C13.3643 24.6208 12.0728 23.3211 10.4585 23.2928C9.02664 23.2646 7.58076 23.3069 6.14891 23.2787C4.40823 23.2363 3.20099 21.6398 3.59404 19.9727C3.84672 18.899 4.46438 18.4045 5.54529 18.4045C5.88219 18.4045 6.20506 18.4187 6.54197 18.4187C6.69638 18.5599 6.73849 18.7436 6.79465 18.9273C7.24385 20.4531 8.52129 21.4138 10.0935 21.442C11.02 21.4562 11.9465 21.442 12.873 21.442C13.0835 21.442 13.2941 21.442 13.4906 21.4986C14.3469 22.3745 15.3155 23.095 16.4386 23.6036C16.593 23.7732 16.593 23.9992 16.593 24.2111C16.593 25.2283 16.607 26.2597 16.593 27.2769C16.5789 28.2376 16.1017 28.7886 15.1752 28.9581C14.2768 29.1135 13.9398 29.4809 13.9679 30.385C14.01 31.6989 13.8556 32.9846 13.8556 34.2985C13.8556 35.6971 14.1925 36.9263 15.47 37.7033C15.5823 37.7316 15.6384 37.8305 15.6946 37.9152Z" fill="#FE3501"/>
<path d="M24.9336 21.5833C25.8601 20.552 26.8708 19.5913 27.8394 18.6023C28.0079 18.4328 28.1903 18.4045 28.4009 18.4045C35.2092 18.4045 42.0315 18.4045 48.8398 18.4045C49.1066 18.4045 49.3031 18.4752 49.5136 18.6447C50.398 19.3794 50.6647 20.4955 50.2155 21.5975C49.9909 21.7811 49.7242 21.767 49.4575 21.767C46.8886 21.767 44.3057 21.8376 41.7368 21.7529C36.9218 21.5833 32.1069 21.7246 27.2919 21.654C26.7445 21.6398 26.211 21.7811 25.6636 21.767C25.4249 21.7529 25.1442 21.7952 24.9336 21.5833Z" fill="#FE5023"/>
<path d="M51.3135 26.1469C51.3697 26.9663 51.117 27.6727 50.5414 28.2661C49.9799 28.8312 49.2921 28.9018 48.6323 28.4356C48.1129 28.0683 47.6216 27.6868 47.1022 27.3054C45.5721 26.1751 43.7472 26.4718 42.6242 28.0118C42.4978 28.1813 42.3855 28.365 42.2592 28.5345C41.6275 29.3398 40.9677 29.4811 40.1114 28.9583C38.9463 28.2378 37.8233 27.4608 36.6722 26.712C35.3667 25.8643 34.1033 25.935 32.896 26.9239C31.9836 27.6727 31.0711 28.4215 30.1587 29.1561C29.4708 29.7212 28.8672 29.7354 28.1513 29.1985C27.1406 28.4497 26.1439 27.6586 25.1051 26.938C23.575 25.8643 22.3397 25.935 20.8938 27.1358C20.5007 27.4608 20.0796 27.7857 19.5742 28.1954C19.6584 27.2912 19.476 26.5001 19.6865 25.723C19.883 25.8784 19.7567 26.1186 19.855 26.3164C20.3323 25.9632 20.7674 25.5676 21.2447 25.2286C21.5395 25.0166 21.0763 25.1155 21.1464 24.9884C22.3677 24.8047 23.603 24.7906 24.8524 24.8047C24.7822 25.0166 24.8945 25.1297 25.0489 25.2427C26.0175 25.9208 26.93 26.6696 27.8986 27.3336C28.7268 27.8987 29.5831 27.8846 30.3973 27.2912C31.3378 26.6131 32.1801 25.8219 33.2048 25.0449C32.5872 25.0308 32.0959 25.0449 31.5905 25.0449C30.3973 25.0449 29.2041 25.059 28.0109 25.0308C27.8003 25.0308 27.5055 25.1438 27.3792 24.8188C30.3552 24.7765 33.3452 24.8189 36.3212 24.9036C37.4442 25.4829 38.469 26.2175 39.5078 26.9239C40.8133 27.7998 41.9363 27.5879 42.8628 26.3164C42.9611 26.1751 43.0593 26.0197 43.1576 25.8784C43.5928 25.2568 44.1964 24.9601 44.9404 24.9177C45.0808 24.9177 45.2352 24.9177 45.3756 24.9177C45.9792 24.946 46.4845 25.172 46.9337 25.5676C47.2847 25.8643 47.6637 26.1045 48.0287 26.3729C49.0254 27.1076 49.8817 27.0935 50.8503 26.3305C51.0328 26.2175 51.131 26.0762 51.3135 26.1469Z" fill="#6DC72A"/>
<path d="M24.9326 21.5835C27.1926 21.4564 29.4527 21.4987 31.7128 21.4846C34.6888 21.4846 37.6788 21.3999 40.6548 21.5129C43.8414 21.6259 47.0279 21.527 50.2145 21.5976C49.7372 22.7137 48.8809 23.2224 47.6877 23.2082C43.1676 23.1941 38.6334 23.1941 34.1132 23.1941C30.6038 23.1941 27.0944 23.1941 23.5849 23.1941C23.4025 23.1941 23.22 23.1941 23.0234 23.1376C23.7394 22.6996 24.3149 22.1062 24.9326 21.5835Z" fill="#FE3501"/>
<path d="M15.6939 37.9154C14.3182 37.3644 13.7988 36.1918 13.7286 34.8214C13.6584 33.1966 13.883 31.586 13.8268 29.9613C13.8128 29.368 14.4024 28.8594 15.0481 28.8028C16.0027 28.7181 16.4519 28.2236 16.4519 27.2629C16.4519 26.0479 16.4519 24.8329 16.4519 23.6038C17.2099 23.8157 17.9539 24.0559 18.8664 24.0982C18.0382 24.9035 18.0241 25.8642 18.0241 26.8108C18.0241 28.5627 18.0101 30.3004 18.0382 32.0523C18.0382 32.5468 17.9259 32.7869 17.3924 32.8293C16.5782 32.8999 15.9606 33.564 15.8062 34.3693C15.7219 34.8637 15.764 35.3582 15.75 35.8527C15.736 36.545 15.8202 37.2231 15.6939 37.9154Z" fill="#FE5023"/>
<path d="M16.0444 18.4188C19.245 18.4188 22.4597 18.4188 25.8007 18.4188C24.2705 19.8034 23.1475 21.5552 21.1401 22.191C20.9296 22.2616 20.705 22.2899 20.4804 22.3464C20.1435 22.4735 19.8767 22.3323 19.61 22.1345C18.9222 21.6259 18.3747 20.9477 17.757 20.3544C17.2798 19.8881 16.8165 19.4219 16.3533 18.9416C16.1989 18.8003 15.9883 18.6731 16.0444 18.4188Z" fill="#FED322"/>
<path d="M31.097 33.8889C29.6792 34.7507 27.756 34.6094 26.5207 33.4368C24.9485 31.9392 23.4324 30.3569 21.8883 28.8169C21.7339 28.6615 21.7058 28.5768 21.8883 28.4072C22.6884 27.6584 23.3482 27.6019 24.2185 28.2518C25.0468 28.8734 25.889 29.4809 26.7173 30.1026C27.1524 30.4275 27.5876 30.7525 28.0649 31.0068C29.0335 32.0098 29.974 33.0412 31.097 33.8889Z" fill="#EDBE00"/>
<path d="M31.0972 33.8889C30.7041 33.8324 30.4374 33.5639 30.1847 33.3238C29.4688 32.6597 28.795 31.9533 28.1212 31.2611C28.051 31.1904 27.9387 31.1339 28.065 31.0209C29.3424 31.4306 30.4234 31.1057 31.406 30.2297C32.1781 29.5516 33.0063 28.9158 33.8064 28.2518C34.6066 27.5878 35.0698 27.5737 35.9402 28.1388C36.6842 28.6333 36.6842 28.6333 36.0384 29.269C34.7049 30.5829 33.3572 31.911 32.0237 33.2249C31.7429 33.4792 31.4621 33.7476 31.0972 33.8889Z" fill="#FED322"/>
<path d="M39.1946 30.2861C40.3878 31.049 41.581 31.0914 42.7883 30.2861C43.9534 30.159 45.1326 30.2437 46.2977 30.2296C46.9013 30.2296 47.4769 30.1731 48.0524 29.9612C48.3332 30.0601 48.5999 30.2296 48.8806 30.2579C49.3298 30.3144 49.372 30.4839 49.1895 30.8512C48.8666 31.5011 48.4876 31.9108 47.6313 31.8967C43.8551 31.8402 40.093 31.8685 36.3169 31.8685C36.1203 31.8685 35.9379 31.8685 35.6992 31.8685C36.2186 31.3175 36.7099 30.7947 37.2013 30.272C37.8751 30.1872 38.5348 30.2155 39.1946 30.2861Z" fill="#874D00"/>
<path d="M27.4191 24.7903C27.6016 24.9457 27.8262 24.8751 28.0227 24.8751C29.8196 24.8751 31.6164 24.8751 33.5115 24.8751C33.1465 25.3554 32.6973 25.5956 32.3183 25.9205C31.6585 26.4715 31.0128 27.0225 30.3109 27.517C29.5669 28.0256 28.7387 28.0397 27.9947 27.517C26.8155 26.7117 25.6784 25.8358 24.5273 24.9881C24.5975 24.8044 24.8081 24.9316 24.8783 24.7903C25.7346 24.7903 26.5769 24.7903 27.4191 24.7903Z" fill="#7DD53E"/>
<path d="M13.5213 21.4987C13.3248 21.6682 13.0861 21.5834 12.8615 21.5834C11.9912 21.5975 11.1209 21.5834 10.2365 21.5834C8.2712 21.5834 6.88146 20.3825 6.55859 18.4188C7.77988 18.4046 9.00116 18.4046 10.2224 18.3905C10.3909 18.3905 10.5172 18.4329 10.6436 18.56C11.6122 19.549 12.5667 20.5238 13.5213 21.4987Z" fill="#FE5023"/>
<path d="M9.19606 24.8893C9.57508 24.8893 9.96813 24.861 10.3472 24.8752C11.1333 24.8893 11.6246 25.3273 11.8071 26.2032C10.3331 25.6805 9.23817 26.4999 8.11515 27.2345C7.46942 27.6584 6.80965 28.0681 6.19199 28.5202C5.75682 28.8451 5.32165 28.9016 4.81629 28.8027C3.3704 28.5343 2.57025 27.5312 2.65448 26.0337C2.86505 25.963 2.97735 26.1326 3.10369 26.2315C3.74942 26.7683 4.5215 26.9802 5.33568 27.0509C5.72874 27.0791 6.05161 26.9237 6.36044 26.7118C7.30097 26.0902 8.24149 25.4827 9.19606 24.8893Z" fill="#6DC72A"/>
<path d="M44.9965 24.8893C44.1261 25.1154 43.4804 25.5816 43.0031 26.3728C42.1609 27.7714 40.5185 27.828 39.4235 26.9661C38.5391 26.2739 37.5705 25.7229 36.63 25.1013C36.5317 25.0306 36.4194 24.9741 36.3633 24.8611C39.241 24.8752 42.1187 24.8893 44.9965 24.8893Z" fill="#7ED53E"/>
<path d="M16.0475 18.4187C17.2407 19.6619 18.4059 20.9334 19.7114 22.0496C19.936 22.2473 20.1887 22.3462 20.4694 22.3321C18.5322 22.7418 16.8056 22.2897 15.3597 20.9758C14.4893 20.1988 13.7173 19.2946 12.875 18.4045C13.9138 18.4187 14.9807 18.4187 16.0475 18.4187Z" fill="#EDBE00"/>
<path d="M9.19226 24.8893C8.8694 25.3838 8.32192 25.5533 7.88675 25.8924C7.4937 26.1891 7.03045 26.3728 6.66547 26.6977C5.82321 27.4324 4.92479 27.2346 4.01234 26.9237C3.49295 26.7542 3.07181 26.4151 2.66472 26.0478C2.62261 25.3414 2.87529 24.748 3.28238 24.1971C3.4368 23.9993 3.5491 23.9569 3.78774 24.1264C4.58789 24.6915 5.4863 24.9176 6.45491 24.9035C7.36736 24.8752 8.27981 24.8893 9.19226 24.8893Z" fill="#7DD53E"/>
<path d="M6.54688 30.258C7.74008 29.4669 8.93329 28.6616 10.1405 27.8704C10.4353 27.6726 10.7722 27.602 11.1512 27.7009C11.6285 27.8422 11.9233 28.0541 11.8531 28.6192C11.797 29.0148 11.8391 29.4245 11.8391 29.8342C11.8391 30.0744 11.7829 30.2863 11.5303 30.3993C10.0563 30.6254 8.56831 30.5688 7.08031 30.5547C6.86974 30.5406 6.58899 30.583 6.54688 30.258Z" fill="#A96100"/>
<path d="M51.3115 26.1467C50.7921 26.5846 50.3008 27.0367 49.5287 27.0085C48.9391 26.9943 48.4478 26.8107 47.9846 26.4575C47.5213 26.1043 47.0581 25.7793 46.6089 25.412C46.2579 25.1294 45.8227 25.0588 45.4297 24.8893C46.272 24.8893 47.1142 24.8893 47.9565 24.8751C48.7426 24.861 49.4866 24.635 50.1323 24.1829C50.4552 23.9568 50.6236 24.0275 50.8061 24.31C51.1571 24.861 51.3817 25.4685 51.3115 26.1467Z" fill="#7DD53E"/>
<path d="M6.54439 30.2579C6.6988 30.4557 6.9234 30.3851 7.13397 30.3851C8.59389 30.3992 10.0679 30.3992 11.5278 30.3992C11.2891 30.5829 10.9943 30.4981 10.7276 30.5829C10.2082 30.7524 9.75902 31.0208 9.50635 31.5153C9.33789 31.8403 9.12733 31.9109 8.79042 31.8968C7.99027 31.8826 7.17608 31.8968 6.37593 31.8968C5.37925 31.8968 4.93005 31.5153 4.69141 30.484C5.33714 30.484 5.96884 30.5687 6.54439 30.2579Z" fill="#874D00"/>
<path d="M48.0376 29.9753C47.8691 30.4416 47.4059 30.3568 47.0971 30.3568C45.7214 30.4133 44.3316 30.3851 42.9559 30.3709C42.8998 30.3709 42.8436 30.3144 42.7734 30.272C43.1665 29.9471 43.4894 29.5656 43.7842 29.1418C44.5001 28.0822 45.2722 27.9551 46.3109 28.6897C46.9005 29.1135 47.462 29.5515 48.0376 29.9753Z" fill="#A96100"/>
<path d="M21.0846 30.2863C21.59 30.7667 22.0813 31.247 22.5866 31.7274C22.5586 31.7698 22.5305 31.8263 22.5165 31.8687C21.6461 31.8687 20.7898 31.8687 19.9195 31.8687C19.6808 31.8687 19.6247 31.7274 19.6387 31.5296C19.6528 31.1481 19.6528 30.7526 19.6528 30.3711C20.116 30.1309 20.5933 30.2298 21.0846 30.2863Z" fill="#874D00"/>
<path d="M21.1826 24.9741C21.337 24.9882 21.4914 25.0024 21.7441 25.0165C21.0562 25.5534 20.4386 26.0478 19.7227 26.613C19.7227 26.2315 19.7227 25.9772 19.7227 25.7229C19.9753 25.0024 20.607 25.0589 21.1826 24.9741Z" fill="#7CD33D"/>
<path d="M39.1926 30.2862C38.5328 30.4416 37.859 30.4557 37.1992 30.2862C37.9292 29.4385 37.9292 29.4385 38.8416 30.046C38.968 30.1308 39.0803 30.2156 39.1926 30.2862Z" fill="#A75F00"/>
<path d="M21.0826 30.2862C20.6053 30.4981 20.114 30.3286 19.6367 30.371C19.9736 29.5374 20.4088 29.5092 21.0826 30.2862Z" fill="#A45D00"/>
<path d="M6.38444 46.0813C6.74942 45.6575 7.17055 45.6292 7.64784 45.8835C10.4413 47.4093 13.4735 48.1016 16.6179 48.2853C20.7731 48.5396 24.9283 48.37 29.0834 48.3842C31.905 48.3983 34.7406 48.5113 37.5482 48.2853C41.0155 48.0027 44.3425 47.2398 47.2904 45.3043C49.5785 43.8067 51.1929 41.8005 51.9369 39.1162C52.1053 38.5087 52.344 38.3533 52.9616 38.3816C53.5372 38.7065 53.6354 38.9608 53.4529 39.5966C52.4563 43.1568 50.1681 45.6292 46.9815 47.3387C44.4126 48.7232 41.6472 49.4155 38.7695 49.7687C37.1411 49.9665 35.5127 49.9947 33.8843 49.9947C28.6763 49.9806 23.4684 50.023 18.2463 49.9806C14.2736 49.9382 10.4413 49.2177 6.8898 47.3246C6.31425 46.9996 6.23003 46.7736 6.38444 46.0813Z" fill="black"/>
<path d="M24.9883 6.86204C25.0725 6.07087 25.269 5.19494 25.7884 4.43203C26.4763 3.44307 27.473 3.42895 28.1608 4.40377C28.6942 5.16668 28.9469 6.05674 28.975 6.98919C29.0031 8.07704 28.0485 8.9671 26.9816 8.9671C25.9007 8.95297 25.0023 8.04878 24.9883 6.86204Z" fill="black"/>
<path d="M22.4731 11.7644C22.4871 12.1883 22.4731 12.5697 22.3608 12.9512C22.0379 13.9825 20.943 14.5759 19.8901 14.2651C18.9075 13.9825 18.2758 12.9088 18.5285 11.9057C18.7671 10.9733 19.2725 10.1962 19.9884 9.57459C20.8447 8.83994 21.8133 9.09424 22.2204 10.1397C22.4169 10.6766 22.4871 11.2276 22.4731 11.7644Z" fill="black"/>
<path d="M31.4844 11.3972C31.4844 10.9451 31.5125 10.4789 31.6949 10.0551C32.0318 9.29216 32.7337 8.99548 33.4637 9.3628C34.5025 9.89966 35.2044 10.7897 35.5132 11.92C35.794 12.923 35.1342 13.9826 34.1375 14.2652C33.1268 14.5478 32.074 14.0109 31.723 13.0078C31.5405 12.4851 31.4844 11.9341 31.4844 11.3972Z" fill="black"/>
<path d="M16.1436 5.74596C16.1576 6.38172 16.0453 7.00335 15.8067 7.59672C15.3715 8.71283 14.1221 9.19318 13.0693 8.67045C12.0445 8.16184 11.6515 6.90445 12.227 5.88724C12.6201 5.18084 13.1535 4.6016 13.8273 4.17776C15.0065 3.42898 16.0453 3.97997 16.1295 5.37864C16.1576 5.50579 16.1436 5.61881 16.1436 5.74596Z" fill="black"/>
<path d="M42.1685 6.79152C42.1264 7.6392 41.7474 8.27495 40.9612 8.61402C40.1892 8.95309 39.4311 8.82594 38.8275 8.21844C38.0835 7.46966 37.6764 6.53722 37.5782 5.49175C37.4939 4.62994 38.0975 4.00831 38.9538 4.07895C40.1471 4.17785 41.1016 4.77122 41.8597 5.68954C42.0983 6.00035 42.1825 6.38181 42.1685 6.79152Z" fill="black"/>
<path d="M26.9984 5.59058C27.2373 6.04267 27.3216 6.43825 27.3919 6.83384C27.434 7.11639 27.2935 7.34244 26.9984 7.34244C26.7034 7.34244 26.5628 7.13052 26.605 6.84796C26.6612 6.42413 26.7455 6.02854 26.9984 5.59058Z" fill="#F2E8C2"/>
<path d="M20.7947 11.072C20.9492 11.5382 20.9211 11.9762 20.8509 12.4C20.8087 12.6544 20.626 12.8098 20.3591 12.725C20.0921 12.6544 20.0078 12.4566 20.1061 12.1881C20.2466 11.7784 20.4434 11.397 20.7947 11.072Z" fill="#F8EFC7"/>
<path d="M33.1065 11.0581C33.5 11.3689 33.7248 11.708 33.9215 12.0753C34.048 12.3155 34.034 12.5839 33.7389 12.6828C33.4578 12.7817 33.2892 12.6404 33.2049 12.3579C33.0784 11.9482 33.0925 11.5385 33.1065 11.0581Z" fill="#FBF1C9"/>
<path d="M14.5616 5.64709C14.5897 6.1557 14.4913 6.56541 14.3648 6.96099C14.2805 7.22942 14.0838 7.38483 13.8028 7.24355C13.5498 7.1164 13.5217 6.87623 13.6623 6.65018C13.873 6.26872 14.1541 5.94378 14.5616 5.64709Z" fill="#F6ECC5"/>
<path d="M39.25 5.78833C39.7273 5.95787 40.0923 6.16978 40.4151 6.46647C40.6117 6.65013 40.6397 6.86205 40.4432 7.05984C40.2326 7.25764 40.0221 7.20113 39.8536 7.00333C39.5869 6.65014 39.3763 6.26868 39.25 5.78833Z" fill="#F7EDC5"/>
</svg>
