<svg width="58" height="50" viewBox="0 0 58 50" fill="none" xmlns="http://www.w3.org/2000/svg">
<path d="M28.208 0C31.3901 0 34.557 0 37.7391 0C38.8049 0 39.2159 0.274056 39.6118 1.24848C40.1447 2.54263 40.6624 3.85201 41.1952 5.16139C41.7129 6.47077 41.1039 7.46041 39.7184 7.53654C39.4139 7.55177 39.3377 7.65834 39.3377 7.9324C39.353 9.05907 39.353 10.1705 39.3377 11.2972C39.3377 11.5865 39.4139 11.6931 39.7184 11.6931C41.0734 11.6778 42.4133 11.6778 43.7683 11.6931C44.1185 11.6931 44.149 11.5408 44.1946 11.2515C44.56 8.38916 46.9504 6.10536 49.7519 5.93788C52.7969 5.75518 55.4309 7.68879 56.1313 10.6121C56.4206 11.8301 56.2683 12.9872 55.7659 14.1139C54.6544 16.5499 52.9949 18.6054 51.244 20.5847C50.9851 20.8739 50.8786 21.1632 50.8786 21.5438C50.8938 23.4318 50.8938 25.3045 50.8786 27.1925C50.8786 27.5883 50.9851 27.7101 51.381 27.7101C52.4315 27.6797 53.4669 27.7101 54.5174 27.6949C55.3244 27.6949 55.842 28.0755 56.1465 28.8063C56.6946 30.1614 57.2427 31.5164 57.7756 32.8715C58.2781 34.1504 57.6843 35.1401 56.314 35.2162C55.842 35.2467 55.9029 35.475 55.9029 35.7643C55.9029 39.7534 55.9029 43.7576 55.9029 47.7467C55.9029 49.3605 55.2635 50 53.6648 50C47.7269 50 41.789 50 35.8512 50C34.3438 50 33.6739 49.3301 33.6739 47.7923C33.6739 43.8033 33.6739 39.799 33.6739 35.81C33.6739 35.4294 33.6587 35.2162 33.1563 35.201C31.9839 35.1401 31.3292 34.1048 31.7555 33.0085C32.3036 31.5773 32.8974 30.1462 33.476 28.7302C33.7957 27.9689 34.3895 27.6797 35.1965 27.6797C39.7488 27.6949 44.286 27.6797 48.8384 27.6949C49.4017 27.6949 49.5692 27.5731 49.554 26.9793C49.5083 25.1675 49.5235 23.3709 49.554 21.5591C49.554 21.1328 49.4169 20.813 49.1429 20.5085C47.4224 18.5749 45.7019 16.5956 44.758 14.1596C44.3469 13.109 43.7988 12.8959 42.8244 12.972C41.8195 13.0481 40.8146 13.0024 39.7945 12.9872C39.3987 12.972 39.3225 13.109 39.3225 13.4744C39.3377 15.6669 39.2921 17.8593 39.3377 20.0365C39.3682 21.422 38.5917 22.3965 37.0692 22.2899C36.2927 22.229 35.5162 22.2747 34.7245 22.2747C30.37 22.2899 26.0156 22.3051 21.6611 22.3203C20.7476 22.3203 19.8341 22.3051 18.9206 22.2747C17.8548 22.2442 17.1088 21.4829 17.1088 20.402C17.0935 18.1029 17.0935 15.8039 17.1088 13.4896C17.1088 13.109 17.0326 12.9568 16.6216 12.972C15.7842 13.0024 14.9468 12.9872 14.1094 12.9872C13.9267 12.9872 13.7592 12.972 13.6678 13.2308C12.9218 15.4537 11.5363 17.2808 10.1051 19.0926C9.90718 19.3514 9.72447 19.6255 9.48087 19.8386C8.56735 20.5847 8.38464 21.5438 8.44555 22.6705C8.52167 24.1474 8.476 25.6395 8.46077 27.1163C8.44555 27.5579 8.56735 27.6949 9.02411 27.6949C13.546 27.6797 18.0832 27.6797 22.6051 27.6797C23.8079 27.6797 24.1733 27.9233 24.6149 29.0499C25.1325 30.3289 25.6502 31.623 26.1678 32.902C26.6398 34.1048 26.0156 35.1249 24.7367 35.1858C24.2799 35.201 24.2799 35.3989 24.2799 35.7339C24.2799 39.7686 24.2799 43.8033 24.2799 47.838C24.2799 49.2844 23.5795 49.9696 22.1483 49.9696C16.1496 49.9696 10.166 49.9696 4.16723 49.9696C2.76649 49.9696 2.0509 49.2692 2.0509 47.8685C2.0509 43.8337 2.0509 39.799 2.0509 35.7643C2.0509 35.3532 1.99 35.1857 1.51802 35.1553C0.345667 35.0944 -0.293797 34.0591 0.132512 32.9629C0.680624 31.5317 1.27441 30.1157 1.85297 28.6845C2.12703 27.9994 2.64469 27.6492 3.40596 27.6492C4.42606 27.6492 5.46138 27.6188 6.48148 27.6644C6.98391 27.6797 7.16662 27.5731 7.15139 27.025C7.10572 25.2893 7.10572 23.5688 7.15139 21.8331C7.16662 21.2241 6.98391 20.7674 6.58805 20.3106C5.08075 18.651 3.71047 16.8088 2.58379 14.799C0.421793 10.9622 2.97965 7.23203 5.88769 6.25761C9.41997 5.08526 13.2872 7.38429 13.8049 11.0536C13.881 11.5713 14.0485 11.754 14.5814 11.7083C15.2817 11.6626 15.9821 11.6778 16.6977 11.6931C16.987 11.6931 17.1392 11.6626 17.1392 11.2972C17.124 10.1553 17.124 9.0134 17.1392 7.8715C17.1392 7.58222 17.0479 7.53654 16.7738 7.52132C15.3731 7.44519 14.7336 6.47077 15.2513 5.17661C15.7842 3.83678 16.3323 2.49695 16.8652 1.15713C17.2153 0.289281 17.6569 0 18.6161 0C21.8134 0 25.0107 0 28.208 0Z" fill="#2E3F68"/>
<path d="M54.55 36.2059C54.55 40.1645 54.5653 44.1231 54.5653 48.0817C54.5653 48.6298 54.2151 48.7364 53.7735 48.7364C52.3424 48.7364 50.9264 48.7364 49.4952 48.7364C48.0945 48.7364 46.6785 48.7059 45.2778 48.7516C44.6992 48.7668 44.5927 48.5841 44.5927 48.0512C44.6231 45.8588 44.6079 43.6815 44.6079 41.4891C44.6079 39.9361 43.9836 39.3119 42.4154 39.3119C41.167 39.3119 39.9033 39.3119 38.6548 39.3119C37.1322 39.3119 36.5232 39.9209 36.5232 41.4586C36.5232 43.6968 36.5232 45.9501 36.5232 48.1882C36.5232 48.4928 36.5385 48.782 36.0969 48.7364C35.6706 48.6907 35.1073 48.9038 35.0464 48.2035C35.0159 47.8381 35.0311 47.4879 35.0311 47.1225C35.0311 43.4836 35.0464 39.86 35.0464 36.2211C35.2595 36.0232 35.5336 36.0384 35.7924 36.0384C41.7912 36.0384 47.79 36.0384 53.7888 36.0384C54.0628 36.0232 54.3369 35.9927 54.55 36.2059Z" fill="#FE5891"/>
<path d="M22.9255 36.2211C22.9255 40.1797 22.9408 44.1383 22.9408 48.0968C22.9408 48.6602 22.5753 48.7363 22.149 48.7363C21.0071 48.7363 19.8652 48.7363 18.7233 48.7363C16.9876 48.7363 15.2672 48.7211 13.5315 48.7515C13.1052 48.7515 12.9834 48.645 12.9834 48.2034C12.9986 45.9348 12.9986 43.6815 12.9986 41.4129C12.9986 39.9361 12.3591 39.2966 10.8671 39.2966C9.51201 39.2966 8.17218 39.2966 6.81712 39.2966C5.61432 39.2966 4.91396 40.0122 4.91396 41.2302C4.91396 43.5292 4.91396 45.8283 4.91396 48.1425C4.91396 48.4318 5.03576 48.7515 4.50287 48.7515C3.71116 48.7515 3.46755 48.645 3.42188 48.1425C3.42188 48.1273 3.42188 48.1121 3.42188 48.0816C3.42188 44.123 3.4371 40.1644 3.4371 36.2059C3.65026 35.9927 3.92431 36.0079 4.18314 36.0079C10.1819 36.0079 16.1807 36.0079 22.1795 36.0079C22.4383 36.0232 22.7124 36.0079 22.9255 36.2211Z" fill="#06D406"/>
<path d="M37.9076 7.65833C38.0903 7.81058 37.9989 8.00851 37.9989 8.19121C37.9989 12.165 37.9989 16.1388 37.9989 20.1126C37.9989 20.8891 37.8771 21.0109 37.1159 21.0109C34.2687 21.0109 31.4064 20.9957 28.5592 21.0262C28.1025 21.0262 27.9959 20.8891 27.9959 20.4476C28.0111 18.1638 28.0111 15.88 28.0111 13.5962C28.0111 12.2259 27.4021 11.6169 26.0318 11.6169C24.6463 11.6169 23.2608 11.6169 21.8601 11.6169C20.6116 11.6169 19.9722 12.2716 19.9722 13.5201C19.9722 15.8343 19.9722 18.1638 19.9722 20.4781C19.9722 20.7369 20.0635 21.0566 19.6067 20.9957C19.1957 20.9348 18.6475 21.2241 18.4801 20.539C18.4648 20.5085 18.4648 20.4628 18.4648 20.4324C18.4801 16.4738 18.4801 12.5152 18.4953 8.57185C18.815 8.31301 19.1804 8.38914 19.5458 8.38914C25.0879 8.38914 30.6147 8.38914 36.1567 8.38914C36.3242 8.38914 36.5069 8.37392 36.6743 8.38914C37.2681 8.46527 37.7401 8.34347 37.9076 7.65833Z" fill="#DDB7C4"/>
<path d="M44.805 33.9221C41.0748 33.9221 37.3446 33.9221 33.6296 33.9221C32.8988 33.9221 32.8531 33.8612 33.1424 33.176C33.6449 31.9428 34.1473 30.7248 34.6193 29.4763C34.7563 29.1413 34.9238 29.0195 35.2892 29.0195C41.6229 29.0348 47.9567 29.0348 54.2904 29.0195C54.6863 29.0195 54.8538 29.1718 54.9908 29.522C55.478 30.7704 55.9957 32.0189 56.4981 33.2674C56.7265 33.846 56.6808 33.9221 56.0566 33.9221C52.2959 33.9221 48.5505 33.9221 44.805 33.9221Z" fill="#FEFEFE"/>
<path d="M13.1212 33.9221C9.40619 33.9221 5.70643 33.9221 1.99145 33.9221C1.29109 33.9221 1.24541 33.8612 1.50424 33.2217C2.00668 31.9885 2.50911 30.7704 2.9811 29.522C3.11813 29.1718 3.2856 29.0195 3.68146 29.0195C10.0152 29.0348 16.3489 29.0348 22.6827 29.0195C23.0481 29.0195 23.2308 29.1413 23.3526 29.4763C23.8398 30.7552 24.3727 32.0189 24.8751 33.2826C25.1035 33.846 25.0426 33.9221 24.4031 33.9221C20.6577 33.9221 16.8818 33.9221 13.1212 33.9221Z" fill="#FEFEFE"/>
<path d="M28.1923 6.19666C24.462 6.19666 20.7318 6.19666 17.0016 6.19666C16.3317 6.19666 16.286 6.13576 16.5296 5.52674C17.0321 4.27827 17.5497 3.02979 18.037 1.76609C18.174 1.43113 18.3567 1.30933 18.7221 1.30933C25.0558 1.32455 31.3896 1.32455 37.7233 1.30933C38.0887 1.30933 38.2562 1.43113 38.3932 1.76609C38.8804 3.04501 39.4133 4.29349 39.931 5.57242C40.1441 6.12053 40.0985 6.19666 39.5047 6.19666C35.7288 6.19666 31.9681 6.19666 28.1923 6.19666Z" fill="#FEFEFE"/>
<path d="M54.0436 9.25706C54.9723 10.536 55.2311 11.9215 54.6221 13.3984C53.8 15.3776 52.4754 17.022 51.1508 18.6663C51.0899 18.7424 51.029 18.8033 50.9681 18.8795C50.1916 19.793 50.2068 19.793 49.4607 18.8795C48.2579 17.4178 47.1313 15.9258 46.2025 14.2814C45.3804 12.8198 45.1977 11.3582 46.0046 9.83562C46.1416 9.57679 46.2939 9.34841 46.4918 9.15048C47.3597 8.32832 48.395 7.85633 49.5978 7.7193C51.1051 7.55182 52.4601 7.93246 53.6325 8.89165C53.7695 9.01346 53.9065 9.15049 54.0436 9.25706Z" fill="#FE5F4A"/>
<path d="M12.2222 10.2924C12.7398 11.4038 12.6789 12.5001 12.1765 13.5811C11.2934 15.5147 9.99929 17.1742 8.65946 18.8033C7.83729 19.8082 7.82206 19.793 7.01512 18.8033C5.75142 17.2351 4.50294 15.6517 3.60464 13.8399C3.01086 12.6371 2.88905 11.4191 3.48284 10.1706C4.28979 9.07435 5.32511 8.32831 6.68016 8.06948C8.53765 7.70407 10.182 8.16083 11.5979 9.42454C11.8568 9.66814 11.9786 10.0183 12.2222 10.2924Z" fill="#FE5F4A"/>
<path d="M11.6288 41.1236C11.6288 43.4836 11.6288 45.8435 11.6288 48.2034C11.4309 48.4013 11.1873 48.3861 10.9437 48.3861C9.61911 48.3861 8.2945 48.3861 6.9699 48.3861C6.72629 48.3861 6.46746 48.3861 6.26953 48.2034C6.26953 45.8435 6.26953 43.4836 6.26953 41.1236C6.45224 40.9561 6.68062 40.9409 6.909 40.9409C8.26405 40.9409 9.61911 40.9409 10.9894 40.9409C11.2178 40.9409 11.4461 40.9409 11.6288 41.1236Z" fill="#FCCA4D"/>
<path d="M37.8906 48.2034C37.8906 45.8435 37.8906 43.4836 37.8906 41.1236C38.0733 40.9714 38.3017 40.9409 38.5301 40.9409C39.8851 40.9409 41.2554 40.9409 42.6105 40.9409C42.8389 40.9409 43.0672 40.9409 43.2499 41.1236C43.2499 43.4836 43.2499 45.8435 43.2499 48.2034C43.052 48.4013 42.8084 48.3861 42.5648 48.3861C41.2402 48.3861 39.9156 48.3861 38.591 48.3861C38.3474 48.3861 38.0886 48.3709 37.8906 48.2034Z" fill="#FCCA4D"/>
<path d="M22.9245 36.2211C16.4232 36.2211 9.92202 36.2211 3.43603 36.2211C3.43603 36.145 3.43603 36.0689 3.4208 35.9927C3.32945 35.4598 3.51216 35.2924 4.07549 35.2924C10.0743 35.3228 16.0578 35.3076 22.0566 35.3076C22.9854 35.3076 22.9854 35.3076 22.9245 36.2211Z" fill="#38DB38"/>
<path d="M54.5497 36.2058C48.0484 36.2058 41.5472 36.2058 35.0612 36.2058C35.0612 36.1145 35.0612 36.0079 35.046 35.9166C34.9546 35.4294 35.1374 35.2771 35.655 35.2771C41.6842 35.2923 47.7135 35.2923 53.7427 35.2923C54.5953 35.3075 54.5953 35.3075 54.5497 36.2058Z" fill="#FD78A7"/>
<path d="M37.9069 7.65835C37.9069 7.7497 37.8917 7.85628 37.9069 7.94763C37.9831 8.45006 37.8004 8.58709 37.2827 8.58709C31.0251 8.57187 24.7522 8.57187 18.4946 8.57187C18.4185 7.61267 18.4185 7.61267 19.3777 7.61267C25.3308 7.61267 31.2839 7.61267 37.237 7.61267C37.4502 7.6279 37.6786 7.64312 37.9069 7.65835Z" fill="#E4C5D0"/>
<path d="M12.2198 10.2924C11.5651 9.62245 10.9257 8.98298 10.0578 8.5719C8.16987 7.6736 5.71859 8.05424 4.24174 9.51587C3.99813 9.74425 3.83065 10.064 3.48047 10.1858C4.22651 8.35874 6.00787 7.23207 8.04807 7.3082C9.92079 7.35387 11.6412 8.58712 12.2198 10.2924Z" fill="#FD8E7F"/>
<path d="M26.6093 13.1395C26.7463 13.2766 26.7007 13.4593 26.7007 13.6267C26.7007 15.8953 26.6854 18.1487 26.7159 20.4172C26.7159 20.8588 26.6245 21.0415 26.1221 21.0263C24.6605 20.9958 23.1988 21.011 21.7372 21.011C21.4784 21.011 21.25 21.0415 21.25 20.6456C21.2652 18.2096 21.25 15.7887 21.25 13.3527C21.25 13.2918 21.3109 13.2157 21.3414 13.1548C21.4327 13.2309 21.4632 13.3375 21.4936 13.444C21.5697 15.3777 21.5088 17.3265 21.5241 19.2601C21.5393 20.265 21.5241 20.265 22.5289 20.265C23.549 20.265 24.5843 20.265 25.6044 20.265C26.3962 20.265 26.4114 20.2498 26.4114 19.4733C26.4114 17.7224 26.4114 15.9714 26.4114 14.2205C26.4114 13.9617 26.3962 13.6876 26.4418 13.4288C26.4723 13.3222 26.518 13.2157 26.6093 13.1395Z" fill="#E2B546"/>
<path d="M54.0436 9.25696C53.4802 9.02858 53.0539 8.57181 52.4906 8.32821C50.557 7.47559 48.7451 7.68875 47.0247 8.8611C46.8572 8.9829 46.6897 9.11993 46.4766 9.15038C48.1818 6.60775 52.3383 6.66865 54.0436 9.25696Z" fill="#FD8E7F"/>
<path d="M6.26806 48.2034C8.04942 48.2034 9.83079 48.2034 11.6274 48.2034C11.7035 48.5536 11.6426 48.7667 11.1858 48.7515C9.69376 48.721 8.20168 48.721 6.70959 48.7515C6.26806 48.7515 6.19193 48.5688 6.26806 48.2034Z" fill="#DBB146"/>
<path d="M37.8895 48.2034C39.6709 48.2034 41.4674 48.2034 43.2488 48.2034C43.3097 48.5536 43.2793 48.7667 42.8225 48.7515C41.3304 48.721 39.8383 48.7363 38.3462 48.7515C37.9047 48.7515 37.7981 48.584 37.8895 48.2034Z" fill="#DCB247"/>
<path d="M11.6294 41.1237C9.84805 41.1237 8.06669 41.1237 6.28532 41.1237C6.23964 40.804 6.3919 40.6669 6.6964 40.6669C8.20371 40.6669 9.71102 40.6669 11.2183 40.6669C11.5076 40.6517 11.6751 40.804 11.6294 41.1237Z" fill="#FCD36E"/>
<path d="M43.2501 41.1237C41.4687 41.1237 39.6874 41.1237 37.8908 41.1237C37.8451 40.804 37.9974 40.6669 38.3019 40.6669C39.8092 40.6669 41.3013 40.6669 42.8086 40.6669C43.1283 40.6517 43.2806 40.804 43.2501 41.1237Z" fill="#FCD36E"/>
<path d="M26.6078 13.1394C26.6078 13.2155 26.5926 13.2917 26.5926 13.3678C26.4099 13.5353 26.1815 13.5353 25.9531 13.5353C24.6285 13.5353 23.3191 13.5353 21.9945 13.5353C21.7662 13.5353 21.5378 13.5353 21.3551 13.3678C21.3551 13.2917 21.3398 13.2155 21.3398 13.1546C21.4312 12.911 21.6596 12.9263 21.8727 12.9263C23.2735 12.9263 24.6742 12.9263 26.0749 12.9263C26.2729 12.9263 26.5012 12.8958 26.6078 13.1394Z" fill="#F6D070"/>
<path d="M49.8426 39.4032C50.8475 39.4032 51.8524 39.4032 52.8725 39.4032C53.6033 39.4032 53.8012 39.5859 53.8012 40.3015C53.8012 41.4434 53.8012 42.5853 53.8012 43.7272C53.8012 44.3819 53.6033 44.6103 52.9638 44.6255C50.8475 44.6407 48.7464 44.6407 46.6301 44.6255C46.0515 44.6255 45.7927 44.3514 45.7927 43.7729C45.7774 42.6005 45.7774 41.4129 45.7927 40.2406C45.7927 39.662 46.0515 39.4184 46.6453 39.4184C47.7111 39.4032 48.7768 39.4032 49.8426 39.4032Z" fill="#2E3F68"/>
<path d="M18.2199 39.4032C19.2704 39.4032 20.3057 39.4032 21.3563 39.4032C21.9805 39.4032 22.2241 39.6315 22.2241 40.2558C22.2394 41.4281 22.2394 42.6157 22.2241 43.7881C22.2241 44.3057 21.9348 44.6102 21.402 44.6102C19.2552 44.6254 17.1084 44.6254 14.9616 44.6102C14.4592 44.6102 14.1851 44.3057 14.1699 43.8185C14.1547 42.6005 14.1395 41.3824 14.1699 40.1644C14.1851 39.6468 14.4592 39.3727 15.0073 39.3879C16.0883 39.4184 17.1541 39.4032 18.2199 39.4032Z" fill="#2E3F68"/>
<path d="M33.2156 16.9001C32.1651 16.9001 31.1297 16.9001 30.0792 16.9001C29.4549 16.9001 29.2266 16.6717 29.2266 16.0323C29.2266 14.8752 29.2266 13.718 29.2266 12.5609C29.2266 11.9367 29.4549 11.6931 30.0792 11.6931C32.1651 11.6778 34.2509 11.6778 36.352 11.6931C37.0219 11.6931 37.2199 11.9214 37.2351 12.5914C37.2351 13.7333 37.2351 14.8752 37.2351 16.0171C37.2351 16.7022 37.0372 16.9001 36.352 16.9153C35.3015 16.9153 34.2661 16.9001 33.2156 16.9001Z" fill="#2E3F68"/>
<path d="M47.1328 11.6169C47.1328 9.89647 48.4879 8.55664 50.2236 8.55664C51.944 8.55664 53.3143 9.92692 53.3143 11.6322C53.3143 13.3374 51.8831 14.7534 50.1779 14.7381C48.4726 14.7229 47.1328 13.3374 47.1328 11.6169Z" fill="#2E3F68"/>
<path d="M4.74609 11.6169C4.76132 9.88125 6.10115 8.55664 7.83684 8.55664C9.54207 8.55664 10.9276 9.94215 10.9276 11.6322C10.9276 13.3374 9.4964 14.7534 7.79116 14.7381C6.08592 14.7229 4.74609 13.3374 4.74609 11.6169Z" fill="#2E3F68"/>
<path d="M21.3551 13.3831C23.106 13.3831 24.8417 13.3831 26.5926 13.3831C26.5926 15.5451 26.5774 17.7223 26.6078 19.8843C26.6078 20.341 26.486 20.4781 26.0292 20.4628C24.6437 20.4324 23.2582 20.4476 21.8575 20.4628C21.4616 20.4628 21.3398 20.341 21.3398 19.9452C21.3551 17.7527 21.3551 15.5603 21.3551 13.3831Z" fill="#FCCA4D"/>
<path d="M52.4769 41.1236C52.4921 41.7174 52.4921 42.296 52.5074 42.8898C52.5226 43.1638 52.4465 43.3009 52.1267 43.3009C50.589 43.2856 49.0512 43.2856 47.5134 43.3009C47.1937 43.3009 47.1328 43.1638 47.1328 42.8898C47.148 42.296 47.148 41.7174 47.1633 41.1236C47.346 40.9409 47.5743 40.9562 47.8027 40.9562C49.1426 40.9562 50.4976 40.9562 51.8374 40.9562C52.0658 40.9562 52.3094 40.9257 52.4769 41.1236Z" fill="#02BDFE"/>
<path d="M52.4774 41.1236C50.7113 41.1236 48.9299 41.1236 47.1638 41.1236C47.1029 40.8495 47.2247 40.7582 47.4988 40.7582C49.0518 40.7582 50.6047 40.7582 52.1577 40.7582C52.4318 40.7582 52.5536 40.8343 52.4774 41.1236Z" fill="#31C9FE"/>
<path d="M20.871 41.1236C20.871 41.7174 20.871 42.296 20.9015 42.8898C20.9167 43.1638 20.8406 43.3009 20.5209 43.3009C18.9831 43.2856 17.4453 43.2856 15.8924 43.3009C15.5726 43.3009 15.5117 43.1791 15.5117 42.8898C15.5269 42.296 15.5269 41.7174 15.5422 41.1236C15.7249 40.9409 15.9533 40.9562 16.1816 40.9562C17.5367 40.9562 18.8765 40.9562 20.2316 40.9562C20.4447 40.9562 20.6883 40.9257 20.871 41.1236Z" fill="#02BDFE"/>
<path d="M20.8689 41.1236C19.0875 41.1236 17.3214 41.1236 15.54 41.1236C15.4791 40.8495 15.5857 40.7582 15.8598 40.7582C17.4128 40.7734 18.9657 40.7734 20.534 40.7582C20.808 40.743 20.9298 40.8343 20.8689 41.1236Z" fill="#31C9FE"/>
<path d="M35.8817 13.3679C35.973 13.9921 35.8969 14.6163 35.9273 15.2406C35.9426 15.4994 35.8055 15.5603 35.5771 15.5603C34.0242 15.5603 32.4712 15.5603 30.9182 15.5603C30.6441 15.5603 30.5528 15.4385 30.568 15.1797C30.5832 14.5707 30.5832 13.9617 30.5832 13.3679C30.7659 13.2004 30.9943 13.2004 31.2227 13.2004C32.5625 13.2004 33.9024 13.2004 35.2422 13.2004C35.4706 13.2004 35.7142 13.1852 35.8817 13.3679Z" fill="#02BDFE"/>
<path d="M35.883 13.3679C34.1168 13.3679 32.3507 13.3679 30.5846 13.3679C30.5237 13.1243 30.615 13.0177 30.8738 13.0177C32.4573 13.0177 34.0255 13.0177 35.6089 13.0177C35.8677 13.0329 35.9896 13.1091 35.883 13.3679Z" fill="#35C7FB"/>
<path d="M51.9739 11.6474C51.9739 12.6371 51.1974 13.4136 50.2078 13.4136C49.2638 13.4136 48.4721 12.6218 48.4416 11.6779C48.4264 10.7339 49.2486 9.88128 50.2078 9.86606C51.1517 9.85083 51.9739 10.6578 51.9739 11.6474Z" fill="#FEFEFE"/>
<path d="M7.85128 13.3983C6.87686 13.4136 6.05469 12.6218 6.05469 11.6474C6.05469 10.7034 6.87686 9.86606 7.83605 9.85083C8.7648 9.85083 9.57174 10.6425 9.58697 11.5865C9.60219 12.5914 8.84092 13.3831 7.85128 13.3983Z" fill="#FEFEFE"/>
</svg>
